<mxfile host="drawio-plugin" modified="2022-11-22T17:49:48.016Z" agent="5.0 (X11; Linux x86_64) AppleWebKit/537.36 (KHTML, like Gecko) Chrome/98.0.4758.102 Safari/537.36" etag="o8m2e-MVyH6bgkstb_9X" version="20.5.3" type="embed"><diagram id="CYa5bM-K4ZWrOZH2Sl78" name="Modelo Conceptual"><mxGraphModel dx="3169" dy="607" grid="1" gridSize="10" guides="1" tooltips="1" connect="1" arrows="1" fold="1" page="1" pageScale="1" pageWidth="827" pageHeight="1169" math="0" shadow="0"><root><mxCell id="0"/><mxCell id="1" parent="0"/><mxCell id="n9BHDYFtltxvlKAYg7nu-107" style="edgeStyle=orthogonalEdgeStyle;rounded=0;orthogonalLoop=1;jettySize=auto;html=1;exitX=0;exitY=0.5;exitDx=0;exitDy=0;entryX=1;entryY=0.5;entryDx=0;entryDy=0;endArrow=none;endFill=0;" parent="1" source="n9BHDYFtltxvlKAYg7nu-2" target="n9BHDYFtltxvlKAYg7nu-105" edge="1"><mxGeometry relative="1" as="geometry"/></mxCell><mxCell id="n9BHDYFtltxvlKAYg7nu-131" style="edgeStyle=orthogonalEdgeStyle;rounded=0;orthogonalLoop=1;jettySize=auto;html=1;exitX=1;exitY=0.5;exitDx=0;exitDy=0;entryX=0;entryY=0.5;entryDx=0;entryDy=0;endArrow=none;endFill=0;" parent="1" source="n9BHDYFtltxvlKAYg7nu-2" target="n9BHDYFtltxvlKAYg7nu-130" edge="1"><mxGeometry relative="1" as="geometry"/></mxCell><mxCell id="n9BHDYFtltxvlKAYg7nu-2" value="Instalação&lt;br&gt;Agrícola" style="whiteSpace=wrap;html=1;align=center;" parent="1" vertex="1"><mxGeometry x="-510" y="890" width="100" height="40" as="geometry"/></mxCell><mxCell id="n9BHDYFtltxvlKAYg7nu-5" value="Estábulo" style="whiteSpace=wrap;html=1;align=center;" parent="1" vertex="1"><mxGeometry x="-1130" y="810" width="100" height="40" as="geometry"/></mxCell><mxCell id="n9BHDYFtltxvlKAYg7nu-6" value="Garagem" style="whiteSpace=wrap;html=1;align=center;" parent="1" vertex="1"><mxGeometry x="-1130" y="960" width="100" height="40" as="geometry"/></mxCell><mxCell id="n9BHDYFtltxvlKAYg7nu-7" value="Armazém" style="whiteSpace=wrap;html=1;align=center;" parent="1" vertex="1"><mxGeometry x="-1130" y="885" width="100" height="40" as="geometry"/></mxCell><mxCell id="n9BHDYFtltxvlKAYg7nu-168" style="edgeStyle=orthogonalEdgeStyle;rounded=0;orthogonalLoop=1;jettySize=auto;html=1;exitX=0;exitY=0;exitDx=0;exitDy=0;entryX=0.5;entryY=1;entryDx=0;entryDy=0;endArrow=none;endFill=0;" parent="1" source="n9BHDYFtltxvlKAYg7nu-8" target="n9BHDYFtltxvlKAYg7nu-35" edge="1"><mxGeometry relative="1" as="geometry"/></mxCell><mxCell id="n9BHDYFtltxvlKAYg7nu-169" style="edgeStyle=orthogonalEdgeStyle;rounded=0;orthogonalLoop=1;jettySize=auto;html=1;exitX=0.5;exitY=0;exitDx=0;exitDy=0;entryX=0.5;entryY=1;entryDx=0;entryDy=0;endArrow=none;endFill=0;" parent="1" source="n9BHDYFtltxvlKAYg7nu-8" target="n9BHDYFtltxvlKAYg7nu-36" edge="1"><mxGeometry relative="1" as="geometry"/></mxCell><mxCell id="n9BHDYFtltxvlKAYg7nu-170" style="edgeStyle=orthogonalEdgeStyle;rounded=0;orthogonalLoop=1;jettySize=auto;html=1;exitX=1;exitY=0;exitDx=0;exitDy=0;entryX=0.5;entryY=1;entryDx=0;entryDy=0;endArrow=none;endFill=0;" parent="1" source="n9BHDYFtltxvlKAYg7nu-8" target="n9BHDYFtltxvlKAYg7nu-38" edge="1"><mxGeometry relative="1" as="geometry"/></mxCell><mxCell id="n9BHDYFtltxvlKAYg7nu-8" value="Sistema Rega" style="whiteSpace=wrap;html=1;align=center;" parent="1" vertex="1"><mxGeometry x="-620" y="1060" width="100" height="40" as="geometry"/></mxCell><mxCell id="n9BHDYFtltxvlKAYg7nu-138" style="edgeStyle=orthogonalEdgeStyle;rounded=0;orthogonalLoop=1;jettySize=auto;html=1;exitX=0.5;exitY=1;exitDx=0;exitDy=0;entryX=0.5;entryY=0;entryDx=0;entryDy=0;endArrow=none;endFill=0;" parent="1" source="n9BHDYFtltxvlKAYg7nu-9" target="n9BHDYFtltxvlKAYg7nu-136" edge="1"><mxGeometry relative="1" as="geometry"/></mxCell><mxCell id="n9BHDYFtltxvlKAYg7nu-9" value="Setor Agrícola" style="whiteSpace=wrap;html=1;align=center;" parent="1" vertex="1"><mxGeometry x="-110" y="890" width="100" height="40" as="geometry"/></mxCell><mxCell id="n9BHDYFtltxvlKAYg7nu-143" style="edgeStyle=orthogonalEdgeStyle;rounded=0;orthogonalLoop=1;jettySize=auto;html=1;exitX=1;exitY=0.5;exitDx=0;exitDy=0;entryX=0;entryY=0.5;entryDx=0;entryDy=0;endArrow=none;endFill=0;" parent="1" source="n9BHDYFtltxvlKAYg7nu-10" target="n9BHDYFtltxvlKAYg7nu-21" edge="1"><mxGeometry relative="1" as="geometry"/></mxCell><mxCell id="n9BHDYFtltxvlKAYg7nu-148" style="edgeStyle=orthogonalEdgeStyle;rounded=0;orthogonalLoop=1;jettySize=auto;html=1;exitX=0;exitY=1;exitDx=0;exitDy=0;endArrow=none;endFill=0;" parent="1" source="n9BHDYFtltxvlKAYg7nu-10" target="n9BHDYFtltxvlKAYg7nu-147" edge="1"><mxGeometry relative="1" as="geometry"/></mxCell><mxCell id="n9BHDYFtltxvlKAYg7nu-149" style="edgeStyle=orthogonalEdgeStyle;rounded=0;orthogonalLoop=1;jettySize=auto;html=1;exitX=1;exitY=1;exitDx=0;exitDy=0;entryX=0;entryY=0.5;entryDx=0;entryDy=0;endArrow=none;endFill=0;" parent="1" source="n9BHDYFtltxvlKAYg7nu-10" target="n9BHDYFtltxvlKAYg7nu-146" edge="1"><mxGeometry relative="1" as="geometry"/></mxCell><mxCell id="n9BHDYFtltxvlKAYg7nu-150" style="edgeStyle=orthogonalEdgeStyle;rounded=0;orthogonalLoop=1;jettySize=auto;html=1;exitX=0.25;exitY=1;exitDx=0;exitDy=0;endArrow=none;endFill=0;" parent="1" source="n9BHDYFtltxvlKAYg7nu-10" target="n9BHDYFtltxvlKAYg7nu-144" edge="1"><mxGeometry relative="1" as="geometry"/></mxCell><mxCell id="n9BHDYFtltxvlKAYg7nu-151" style="edgeStyle=orthogonalEdgeStyle;rounded=0;orthogonalLoop=1;jettySize=auto;html=1;exitX=0.75;exitY=1;exitDx=0;exitDy=0;endArrow=none;endFill=0;" parent="1" source="n9BHDYFtltxvlKAYg7nu-10" target="n9BHDYFtltxvlKAYg7nu-145" edge="1"><mxGeometry relative="1" as="geometry"/></mxCell><mxCell id="n9BHDYFtltxvlKAYg7nu-232" style="edgeStyle=orthogonalEdgeStyle;rounded=0;orthogonalLoop=1;jettySize=auto;html=1;exitX=0.25;exitY=0;exitDx=0;exitDy=0;entryX=1;entryY=1;entryDx=0;entryDy=0;endArrow=none;endFill=0;" parent="1" source="n9BHDYFtltxvlKAYg7nu-10" target="n9BHDYFtltxvlKAYg7nu-22" edge="1"><mxGeometry relative="1" as="geometry"/></mxCell><mxCell id="n9BHDYFtltxvlKAYg7nu-10" value="Cultura" style="whiteSpace=wrap;html=1;align=center;" parent="1" vertex="1"><mxGeometry x="-130" y="1110" width="100" height="40" as="geometry"/></mxCell><mxCell id="n9BHDYFtltxvlKAYg7nu-221" style="edgeStyle=orthogonalEdgeStyle;rounded=0;orthogonalLoop=1;jettySize=auto;html=1;exitX=1;exitY=1;exitDx=0;exitDy=0;endArrow=none;endFill=0;" parent="1" source="n9BHDYFtltxvlKAYg7nu-12" target="n9BHDYFtltxvlKAYg7nu-9" edge="1"><mxGeometry relative="1" as="geometry"/></mxCell><mxCell id="n9BHDYFtltxvlKAYg7nu-12" value="Designação" style="ellipse;whiteSpace=wrap;html=1;align=center;" parent="1" vertex="1"><mxGeometry x="-170" y="760" width="100" height="40" as="geometry"/></mxCell><mxCell id="n9BHDYFtltxvlKAYg7nu-220" style="edgeStyle=orthogonalEdgeStyle;rounded=0;orthogonalLoop=1;jettySize=auto;html=1;exitX=0;exitY=1;exitDx=0;exitDy=0;entryX=0.935;entryY=0.017;entryDx=0;entryDy=0;entryPerimeter=0;endArrow=none;endFill=0;" parent="1" source="n9BHDYFtltxvlKAYg7nu-14" target="n9BHDYFtltxvlKAYg7nu-9" edge="1"><mxGeometry relative="1" as="geometry"/></mxCell><mxCell id="n9BHDYFtltxvlKAYg7nu-14" value="área" style="ellipse;whiteSpace=wrap;html=1;align=center;" parent="1" vertex="1"><mxGeometry x="70" y="775" width="100" height="40" as="geometry"/></mxCell><mxCell id="n9BHDYFtltxvlKAYg7nu-16" value="Macieira" style="whiteSpace=wrap;html=1;align=center;" parent="1" vertex="1"><mxGeometry x="-300" y="1360" width="100" height="40" as="geometry"/></mxCell><mxCell id="n9BHDYFtltxvlKAYg7nu-17" value="Pereira" style="whiteSpace=wrap;html=1;align=center;" parent="1" vertex="1"><mxGeometry x="-170" y="1360" width="100" height="40" as="geometry"/></mxCell><mxCell id="n9BHDYFtltxvlKAYg7nu-18" value="Trigo" style="whiteSpace=wrap;html=1;align=center;" parent="1" vertex="1"><mxGeometry x="-60" y="1360" width="100" height="40" as="geometry"/></mxCell><mxCell id="n9BHDYFtltxvlKAYg7nu-19" value="Feijão" style="whiteSpace=wrap;html=1;align=center;" parent="1" vertex="1"><mxGeometry x="50" y="1360" width="100" height="40" as="geometry"/></mxCell><mxCell id="n9BHDYFtltxvlKAYg7nu-111" style="edgeStyle=orthogonalEdgeStyle;rounded=0;orthogonalLoop=1;jettySize=auto;html=1;exitX=0;exitY=0.5;exitDx=0;exitDy=0;entryX=1;entryY=0.5;entryDx=0;entryDy=0;endArrow=none;endFill=0;" parent="1" source="n9BHDYFtltxvlKAYg7nu-20" target="n9BHDYFtltxvlKAYg7nu-110" edge="1"><mxGeometry relative="1" as="geometry"/></mxCell><mxCell id="n9BHDYFtltxvlKAYg7nu-115" style="edgeStyle=orthogonalEdgeStyle;rounded=0;orthogonalLoop=1;jettySize=auto;html=1;exitX=0.5;exitY=1;exitDx=0;exitDy=0;entryX=1;entryY=0.5;entryDx=0;entryDy=0;endArrow=none;endFill=0;" parent="1" source="n9BHDYFtltxvlKAYg7nu-20" target="n9BHDYFtltxvlKAYg7nu-114" edge="1"><mxGeometry relative="1" as="geometry"/></mxCell><mxCell id="n9BHDYFtltxvlKAYg7nu-117" style="edgeStyle=orthogonalEdgeStyle;rounded=0;orthogonalLoop=1;jettySize=auto;html=1;exitX=0.5;exitY=0;exitDx=0;exitDy=0;entryX=1;entryY=0.5;entryDx=0;entryDy=0;endArrow=none;endFill=0;" parent="1" source="n9BHDYFtltxvlKAYg7nu-20" target="n9BHDYFtltxvlKAYg7nu-113" edge="1"><mxGeometry relative="1" as="geometry"/></mxCell><mxCell id="n9BHDYFtltxvlKAYg7nu-20" value="Edifício" style="whiteSpace=wrap;html=1;align=center;" parent="1" vertex="1"><mxGeometry x="-860" y="890" width="100" height="40" as="geometry"/></mxCell><mxCell id="n9BHDYFtltxvlKAYg7nu-21" value="Objetivo" style="ellipse;whiteSpace=wrap;html=1;align=center;fontFamily=Helvetica;fontSize=12;fontColor=default;strokeColor=default;fillColor=default;" parent="1" vertex="1"><mxGeometry y="1110" width="100" height="40" as="geometry"/></mxCell><mxCell id="n9BHDYFtltxvlKAYg7nu-22" value="Tipo Cultura" style="ellipse;whiteSpace=wrap;html=1;align=center;fontFamily=Helvetica;fontSize=12;fontColor=default;strokeColor=default;fillColor=default;" parent="1" vertex="1"><mxGeometry x="-190" y="1059" width="100" height="40" as="geometry"/></mxCell><mxCell id="n9BHDYFtltxvlKAYg7nu-164" style="edgeStyle=orthogonalEdgeStyle;rounded=0;orthogonalLoop=1;jettySize=auto;html=1;exitX=0;exitY=0;exitDx=0;exitDy=0;entryX=1;entryY=0.5;entryDx=0;entryDy=0;endArrow=none;endFill=0;" parent="1" source="n9BHDYFtltxvlKAYg7nu-24" target="n9BHDYFtltxvlKAYg7nu-31" edge="1"><mxGeometry relative="1" as="geometry"/></mxCell><mxCell id="n9BHDYFtltxvlKAYg7nu-165" style="edgeStyle=orthogonalEdgeStyle;rounded=0;orthogonalLoop=1;jettySize=auto;html=1;exitX=0;exitY=0.25;exitDx=0;exitDy=0;entryX=1;entryY=0.5;entryDx=0;entryDy=0;endArrow=none;endFill=0;" parent="1" source="n9BHDYFtltxvlKAYg7nu-24" target="n9BHDYFtltxvlKAYg7nu-29" edge="1"><mxGeometry relative="1" as="geometry"/></mxCell><mxCell id="n9BHDYFtltxvlKAYg7nu-166" style="edgeStyle=orthogonalEdgeStyle;rounded=0;orthogonalLoop=1;jettySize=auto;html=1;exitX=0;exitY=0.5;exitDx=0;exitDy=0;entryX=1;entryY=0.5;entryDx=0;entryDy=0;endArrow=none;endFill=0;" parent="1" source="n9BHDYFtltxvlKAYg7nu-24" target="n9BHDYFtltxvlKAYg7nu-33" edge="1"><mxGeometry relative="1" as="geometry"/></mxCell><mxCell id="n9BHDYFtltxvlKAYg7nu-174" style="edgeStyle=orthogonalEdgeStyle;rounded=0;orthogonalLoop=1;jettySize=auto;html=1;exitX=1;exitY=0.5;exitDx=0;exitDy=0;entryX=0;entryY=0.5;entryDx=0;entryDy=0;endArrow=none;endFill=0;" parent="1" source="n9BHDYFtltxvlKAYg7nu-24" target="n9BHDYFtltxvlKAYg7nu-172" edge="1"><mxGeometry relative="1" as="geometry"/></mxCell><mxCell id="n9BHDYFtltxvlKAYg7nu-24" value="Factores Produção" style="whiteSpace=wrap;html=1;align=center;" parent="1" vertex="1"><mxGeometry x="-1080" y="1730" width="100" height="40" as="geometry"/></mxCell><mxCell id="n9BHDYFtltxvlKAYg7nu-29" value="Nome Comercial" style="ellipse;whiteSpace=wrap;html=1;align=center;" parent="1" vertex="1"><mxGeometry x="-1230" y="1700" width="100" height="40" as="geometry"/></mxCell><mxCell id="n9BHDYFtltxvlKAYg7nu-31" value="Tipo" style="ellipse;whiteSpace=wrap;html=1;align=center;" parent="1" vertex="1"><mxGeometry x="-1230" y="1650" width="100" height="40" as="geometry"/></mxCell><mxCell id="n9BHDYFtltxvlKAYg7nu-167" style="edgeStyle=orthogonalEdgeStyle;rounded=0;orthogonalLoop=1;jettySize=auto;html=1;exitX=1;exitY=0.5;exitDx=0;exitDy=0;entryX=0;entryY=1;entryDx=0;entryDy=0;endArrow=none;endFill=0;" parent="1" source="n9BHDYFtltxvlKAYg7nu-32" target="n9BHDYFtltxvlKAYg7nu-24" edge="1"><mxGeometry relative="1" as="geometry"/></mxCell><mxCell id="n9BHDYFtltxvlKAYg7nu-32" value="Ficha Técnica" style="ellipse;whiteSpace=wrap;html=1;align=center;" parent="1" vertex="1"><mxGeometry x="-1230" y="1810" width="100" height="40" as="geometry"/></mxCell><mxCell id="n9BHDYFtltxvlKAYg7nu-33" value="Formulação" style="ellipse;whiteSpace=wrap;html=1;align=center;fontFamily=Helvetica;fontSize=12;fontColor=default;strokeColor=default;fillColor=default;" parent="1" vertex="1"><mxGeometry x="-1230" y="1760" width="100" height="40" as="geometry"/></mxCell><mxCell id="n9BHDYFtltxvlKAYg7nu-35" value="Modo&lt;br&gt;Funciomente" style="ellipse;whiteSpace=wrap;html=1;align=center;" parent="1" vertex="1"><mxGeometry x="-710" y="970" width="100" height="40" as="geometry"/></mxCell><mxCell id="n9BHDYFtltxvlKAYg7nu-36" value="Distruição" style="ellipse;whiteSpace=wrap;html=1;align=center;" parent="1" vertex="1"><mxGeometry x="-610" y="955" width="100" height="40" as="geometry"/></mxCell><mxCell id="n9BHDYFtltxvlKAYg7nu-38" value="Controlador" style="ellipse;whiteSpace=wrap;html=1;align=center;" parent="1" vertex="1"><mxGeometry x="-510" y="960" width="100" height="40" as="geometry"/></mxCell><mxCell id="n9BHDYFtltxvlKAYg7nu-177" style="edgeStyle=orthogonalEdgeStyle;rounded=0;orthogonalLoop=1;jettySize=auto;html=1;exitX=0;exitY=1;exitDx=0;exitDy=0;entryX=0.5;entryY=0;entryDx=0;entryDy=0;endArrow=none;endFill=0;" parent="1" source="n9BHDYFtltxvlKAYg7nu-39" target="n9BHDYFtltxvlKAYg7nu-40" edge="1"><mxGeometry relative="1" as="geometry"/></mxCell><mxCell id="n9BHDYFtltxvlKAYg7nu-178" style="edgeStyle=orthogonalEdgeStyle;rounded=0;orthogonalLoop=1;jettySize=auto;html=1;exitX=0.5;exitY=1;exitDx=0;exitDy=0;entryX=0.5;entryY=0;entryDx=0;entryDy=0;endArrow=none;endFill=0;" parent="1" source="n9BHDYFtltxvlKAYg7nu-39" target="n9BHDYFtltxvlKAYg7nu-41" edge="1"><mxGeometry relative="1" as="geometry"/></mxCell><mxCell id="n9BHDYFtltxvlKAYg7nu-179" style="edgeStyle=orthogonalEdgeStyle;rounded=0;orthogonalLoop=1;jettySize=auto;html=1;exitX=1;exitY=1;exitDx=0;exitDy=0;entryX=0.5;entryY=0;entryDx=0;entryDy=0;endArrow=none;endFill=0;" parent="1" source="n9BHDYFtltxvlKAYg7nu-39" target="n9BHDYFtltxvlKAYg7nu-42" edge="1"><mxGeometry relative="1" as="geometry"/></mxCell><mxCell id="n9BHDYFtltxvlKAYg7nu-39" value="&amp;nbsp;Rega" style="whiteSpace=wrap;html=1;align=center;fontFamily=Helvetica;fontSize=12;fontColor=default;strokeColor=default;fillColor=default;" parent="1" vertex="1"><mxGeometry x="-700" y="1730" width="100" height="40" as="geometry"/></mxCell><mxCell id="n9BHDYFtltxvlKAYg7nu-40" value="Ordem campos" style="ellipse;whiteSpace=wrap;html=1;align=center;" parent="1" vertex="1"><mxGeometry x="-800" y="1810" width="100" height="40" as="geometry"/></mxCell><mxCell id="n9BHDYFtltxvlKAYg7nu-41" value="Tempo Rega" style="ellipse;whiteSpace=wrap;html=1;align=center;" parent="1" vertex="1"><mxGeometry x="-690" y="1810" width="100" height="40" as="geometry"/></mxCell><mxCell id="n9BHDYFtltxvlKAYg7nu-42" value="Periodicidade Rega" style="ellipse;whiteSpace=wrap;html=1;align=center;" parent="1" vertex="1"><mxGeometry x="-580" y="1810" width="100" height="40" as="geometry"/></mxCell><mxCell id="n9BHDYFtltxvlKAYg7nu-43" value="Estação Metereológica" style="whiteSpace=wrap;html=1;align=center;" parent="1" vertex="1"><mxGeometry x="810" y="1859" width="100" height="40" as="geometry"/></mxCell><mxCell id="n9BHDYFtltxvlKAYg7nu-188" style="edgeStyle=orthogonalEdgeStyle;rounded=0;orthogonalLoop=1;jettySize=auto;html=1;exitX=0.5;exitY=1;exitDx=0;exitDy=0;entryX=0;entryY=0.5;entryDx=0;entryDy=0;endArrow=none;endFill=0;" parent="1" source="n9BHDYFtltxvlKAYg7nu-44" target="n9BHDYFtltxvlKAYg7nu-183" edge="1"><mxGeometry relative="1" as="geometry"/></mxCell><mxCell id="n9BHDYFtltxvlKAYg7nu-191" style="edgeStyle=orthogonalEdgeStyle;rounded=0;orthogonalLoop=1;jettySize=auto;html=1;exitX=1;exitY=1;exitDx=0;exitDy=0;entryX=0;entryY=0.5;entryDx=0;entryDy=0;endArrow=none;endFill=0;" parent="1" source="n9BHDYFtltxvlKAYg7nu-44" target="n9BHDYFtltxvlKAYg7nu-184" edge="1"><mxGeometry relative="1" as="geometry"/></mxCell><mxCell id="n9BHDYFtltxvlKAYg7nu-192" style="edgeStyle=orthogonalEdgeStyle;rounded=0;orthogonalLoop=1;jettySize=auto;html=1;exitX=1;exitY=0.5;exitDx=0;exitDy=0;endArrow=none;endFill=0;" parent="1" source="n9BHDYFtltxvlKAYg7nu-44" target="n9BHDYFtltxvlKAYg7nu-185" edge="1"><mxGeometry relative="1" as="geometry"/></mxCell><mxCell id="n9BHDYFtltxvlKAYg7nu-205" style="edgeStyle=orthogonalEdgeStyle;rounded=0;orthogonalLoop=1;jettySize=auto;html=1;exitX=0;exitY=0.75;exitDx=0;exitDy=0;entryX=0;entryY=0;entryDx=0;entryDy=0;endArrow=none;endFill=0;" parent="1" source="n9BHDYFtltxvlKAYg7nu-44" target="n9BHDYFtltxvlKAYg7nu-186" edge="1"><mxGeometry relative="1" as="geometry"/></mxCell><mxCell id="n9BHDYFtltxvlKAYg7nu-44" value="Sensor" style="whiteSpace=wrap;html=1;align=center;" parent="1" vertex="1"><mxGeometry x="1080" y="1914" width="100" height="40" as="geometry"/></mxCell><mxCell id="n9BHDYFtltxvlKAYg7nu-47" value="Caderno de campo" style="whiteSpace=wrap;html=1;align=center;" parent="1" vertex="1"><mxGeometry x="-725" y="1680" width="100" height="40" as="geometry"/></mxCell><mxCell id="n9BHDYFtltxvlKAYg7nu-48" value="Sensor Pluviosidade" style="whiteSpace=wrap;html=1;align=center;" parent="1" vertex="1"><mxGeometry x="990" y="2260" width="100" height="40" as="geometry"/></mxCell><mxCell id="n9BHDYFtltxvlKAYg7nu-49" value="Sensor Temperatura Solo" style="whiteSpace=wrap;html=1;align=center;" parent="1" vertex="1"><mxGeometry x="1100" y="2260" width="100" height="40" as="geometry"/></mxCell><mxCell id="n9BHDYFtltxvlKAYg7nu-50" value="Sensor Humidade Solo" style="whiteSpace=wrap;html=1;align=center;" parent="1" vertex="1"><mxGeometry x="1210" y="2260" width="100" height="40" as="geometry"/></mxCell><mxCell id="n9BHDYFtltxvlKAYg7nu-197" style="edgeStyle=orthogonalEdgeStyle;rounded=0;orthogonalLoop=1;jettySize=auto;html=1;exitX=1;exitY=0;exitDx=0;exitDy=0;entryX=1;entryY=0.5;entryDx=0;entryDy=0;endArrow=none;endFill=0;" parent="1" source="n9BHDYFtltxvlKAYg7nu-51" target="n9BHDYFtltxvlKAYg7nu-186" edge="1"><mxGeometry relative="1" as="geometry"/></mxCell><mxCell id="n9BHDYFtltxvlKAYg7nu-51" value="Sensor Velociade&lt;br&gt;Vento" style="whiteSpace=wrap;html=1;align=center;" parent="1" vertex="1"><mxGeometry x="880" y="2260" width="100" height="40" as="geometry"/></mxCell><mxCell id="n9BHDYFtltxvlKAYg7nu-52" value="Sensor Temperatura/Humidade Ar/ Pressão Atmosférica" style="whiteSpace=wrap;html=1;align=center;" parent="1" vertex="1"><mxGeometry x="1320" y="2260" width="340" height="40" as="geometry"/></mxCell><mxCell id="n9BHDYFtltxvlKAYg7nu-53" value="Gestor Agrícula" style="whiteSpace=wrap;html=1;align=center;" parent="1" vertex="1"><mxGeometry x="1070" y="370" width="100" height="40" as="geometry"/></mxCell><mxCell id="OKjxkkXSC3GkU-OfnmQm-22" style="edgeStyle=orthogonalEdgeStyle;rounded=0;orthogonalLoop=1;jettySize=auto;html=1;exitX=1;exitY=0.5;exitDx=0;exitDy=0;entryX=0;entryY=0.5;entryDx=0;entryDy=0;endArrow=none;endFill=0;" parent="1" source="n9BHDYFtltxvlKAYg7nu-54" target="OKjxkkXSC3GkU-OfnmQm-20" edge="1"><mxGeometry relative="1" as="geometry"/></mxCell><mxCell id="OKjxkkXSC3GkU-OfnmQm-23" style="edgeStyle=orthogonalEdgeStyle;rounded=0;orthogonalLoop=1;jettySize=auto;html=1;exitX=1;exitY=0.75;exitDx=0;exitDy=0;entryX=0;entryY=0.5;entryDx=0;entryDy=0;endArrow=none;endFill=0;" parent="1" source="n9BHDYFtltxvlKAYg7nu-54" target="OKjxkkXSC3GkU-OfnmQm-21" edge="1"><mxGeometry relative="1" as="geometry"><Array as="points"><mxPoint x="1320" y="480"/><mxPoint x="1320" y="540"/></Array></mxGeometry></mxCell><mxCell id="sahUQvl5ozFRLX7pKj-Z-72" style="edgeStyle=orthogonalEdgeStyle;rounded=0;orthogonalLoop=1;jettySize=auto;html=1;exitX=1;exitY=0.25;exitDx=0;exitDy=0;entryX=0;entryY=0.5;entryDx=0;entryDy=0;endArrow=none;endFill=0;" parent="1" source="n9BHDYFtltxvlKAYg7nu-54" target="OKjxkkXSC3GkU-OfnmQm-1" edge="1"><mxGeometry relative="1" as="geometry"><Array as="points"><mxPoint x="1190" y="460"/><mxPoint x="1190" y="375"/></Array></mxGeometry></mxCell><mxCell id="n9BHDYFtltxvlKAYg7nu-54" value="Cliente" style="whiteSpace=wrap;html=1;align=center;" parent="1" vertex="1"><mxGeometry x="1080" y="450" width="100" height="40" as="geometry"/></mxCell><mxCell id="n9BHDYFtltxvlKAYg7nu-245" style="edgeStyle=orthogonalEdgeStyle;rounded=0;orthogonalLoop=1;jettySize=auto;html=1;exitX=0;exitY=0.5;exitDx=0;exitDy=0;entryX=1;entryY=0.5;entryDx=0;entryDy=0;endArrow=none;endFill=0;" parent="1" source="n9BHDYFtltxvlKAYg7nu-55" target="n9BHDYFtltxvlKAYg7nu-240" edge="1"><mxGeometry relative="1" as="geometry"/></mxCell><mxCell id="n9BHDYFtltxvlKAYg7nu-55" value="Condutor" style="whiteSpace=wrap;html=1;align=center;" parent="1" vertex="1"><mxGeometry x="1060" y="230" width="100" height="40" as="geometry"/></mxCell><mxCell id="n9BHDYFtltxvlKAYg7nu-57" value="Gestor Distribuição" style="whiteSpace=wrap;html=1;align=center;" parent="1" vertex="1"><mxGeometry x="1060" y="305" width="100" height="40" as="geometry"/></mxCell><mxCell id="n9BHDYFtltxvlKAYg7nu-58" value="Plano Anual" style="whiteSpace=wrap;html=1;align=center;" parent="1" vertex="1"><mxGeometry x="-590" y="1660" width="100" height="40" as="geometry"/></mxCell><mxCell id="n9BHDYFtltxvlKAYg7nu-59" value="quantidade" style="ellipse;whiteSpace=wrap;html=1;align=center;" parent="1" vertex="1"><mxGeometry x="-430" y="20" width="100" height="40" as="geometry"/></mxCell><mxCell id="n9BHDYFtltxvlKAYg7nu-60" value="data" style="ellipse;whiteSpace=wrap;html=1;align=center;" parent="1" vertex="1"><mxGeometry x="-320" y="20" width="100" height="40" as="geometry"/></mxCell><mxCell id="n9BHDYFtltxvlKAYg7nu-62" value="Venda" style="whiteSpace=wrap;html=1;align=center;" parent="1" vertex="1"><mxGeometry x="560" y="710" width="100" height="40" as="geometry"/></mxCell><mxCell id="n9BHDYFtltxvlKAYg7nu-239" style="edgeStyle=orthogonalEdgeStyle;rounded=0;orthogonalLoop=1;jettySize=auto;html=1;exitX=0;exitY=0.5;exitDx=0;exitDy=0;entryX=1;entryY=0;entryDx=0;entryDy=0;endArrow=none;endFill=0;" parent="1" source="n9BHDYFtltxvlKAYg7nu-65" target="n9BHDYFtltxvlKAYg7nu-54" edge="1"><mxGeometry relative="1" as="geometry"/></mxCell><mxCell id="n9BHDYFtltxvlKAYg7nu-65" value="tipo" style="ellipse;whiteSpace=wrap;html=1;align=center;" parent="1" vertex="1"><mxGeometry x="1220" y="300" width="100" height="40" as="geometry"/></mxCell><mxCell id="n9BHDYFtltxvlKAYg7nu-226" style="edgeStyle=orthogonalEdgeStyle;rounded=0;orthogonalLoop=1;jettySize=auto;html=1;exitX=0;exitY=0.5;exitDx=0;exitDy=0;entryX=1;entryY=0.5;entryDx=0;entryDy=0;endArrow=none;endFill=0;" parent="1" source="n9BHDYFtltxvlKAYg7nu-66" target="n9BHDYFtltxvlKAYg7nu-215" edge="1"><mxGeometry relative="1" as="geometry"/></mxCell><mxCell id="n9BHDYFtltxvlKAYg7nu-66" value="Colheita" style="whiteSpace=wrap;html=1;align=center;" parent="1" vertex="1"><mxGeometry x="380" y="995" width="100" height="40" as="geometry"/></mxCell><mxCell id="n9BHDYFtltxvlKAYg7nu-278" style="edgeStyle=orthogonalEdgeStyle;rounded=0;orthogonalLoop=1;jettySize=auto;html=1;exitX=0.5;exitY=1;exitDx=0;exitDy=0;entryX=0.5;entryY=0;entryDx=0;entryDy=0;endArrow=none;endFill=0;" parent="1" source="n9BHDYFtltxvlKAYg7nu-67" target="n9BHDYFtltxvlKAYg7nu-62" edge="1"><mxGeometry relative="1" as="geometry"/></mxCell><mxCell id="n9BHDYFtltxvlKAYg7nu-67" value="lucro" style="ellipse;whiteSpace=wrap;html=1;align=center;" parent="1" vertex="1"><mxGeometry x="550" y="645" width="100" height="40" as="geometry"/></mxCell><mxCell id="n9BHDYFtltxvlKAYg7nu-229" style="edgeStyle=orthogonalEdgeStyle;rounded=0;orthogonalLoop=1;jettySize=auto;html=1;exitX=0;exitY=0.5;exitDx=0;exitDy=0;entryX=1;entryY=0.5;entryDx=0;entryDy=0;endArrow=none;endFill=0;" parent="1" source="n9BHDYFtltxvlKAYg7nu-68" target="n9BHDYFtltxvlKAYg7nu-66" edge="1"><mxGeometry relative="1" as="geometry"/></mxCell><mxCell id="n9BHDYFtltxvlKAYg7nu-68" value="ano" style="ellipse;whiteSpace=wrap;html=1;align=center;" parent="1" vertex="1"><mxGeometry x="520" y="995" width="100" height="40" as="geometry"/></mxCell><mxCell id="n9BHDYFtltxvlKAYg7nu-71" value="estado&lt;br&gt;atual" style="ellipse;whiteSpace=wrap;html=1;align=center;" parent="1" vertex="1"><mxGeometry x="1065" y="975" width="100" height="35" as="geometry"/></mxCell><mxCell id="n9BHDYFtltxvlKAYg7nu-73" value="data pedido" style="ellipse;whiteSpace=wrap;html=1;align=center;" parent="1" vertex="1"><mxGeometry x="800" y="815" width="100" height="40" as="geometry"/></mxCell><mxCell id="n9BHDYFtltxvlKAYg7nu-74" value="Quantidade&lt;br&gt;Pedido" style="ellipse;whiteSpace=wrap;html=1;align=center;" parent="1" vertex="1"><mxGeometry x="30" y="567.5" width="100" height="40" as="geometry"/></mxCell><mxCell id="n9BHDYFtltxvlKAYg7nu-270" style="edgeStyle=orthogonalEdgeStyle;rounded=0;orthogonalLoop=1;jettySize=auto;html=1;exitX=1;exitY=0;exitDx=0;exitDy=0;entryX=0.5;entryY=1;entryDx=0;entryDy=0;endArrow=none;endFill=0;" parent="1" source="n9BHDYFtltxvlKAYg7nu-76" target="n9BHDYFtltxvlKAYg7nu-85" edge="1"><mxGeometry relative="1" as="geometry"/></mxCell><mxCell id="n9BHDYFtltxvlKAYg7nu-271" style="edgeStyle=orthogonalEdgeStyle;rounded=0;orthogonalLoop=1;jettySize=auto;html=1;exitX=1;exitY=0.5;exitDx=0;exitDy=0;entryX=0.5;entryY=1;entryDx=0;entryDy=0;endArrow=none;endFill=0;" parent="1" source="n9BHDYFtltxvlKAYg7nu-76" target="n9BHDYFtltxvlKAYg7nu-78" edge="1"><mxGeometry relative="1" as="geometry"/></mxCell><mxCell id="n9BHDYFtltxvlKAYg7nu-272" style="edgeStyle=orthogonalEdgeStyle;rounded=0;orthogonalLoop=1;jettySize=auto;html=1;exitX=0.25;exitY=0;exitDx=0;exitDy=0;entryX=0.5;entryY=1;entryDx=0;entryDy=0;endArrow=none;endFill=0;" parent="1" source="n9BHDYFtltxvlKAYg7nu-76" target="n9BHDYFtltxvlKAYg7nu-77" edge="1"><mxGeometry relative="1" as="geometry"/></mxCell><mxCell id="n9BHDYFtltxvlKAYg7nu-76" value="Operação" style="whiteSpace=wrap;html=1;align=center;" parent="1" vertex="1"><mxGeometry x="210" y="100" width="100" height="40" as="geometry"/></mxCell><mxCell id="n9BHDYFtltxvlKAYg7nu-77" value="forma aplicação" style="ellipse;whiteSpace=wrap;html=1;align=center;" parent="1" vertex="1"><mxGeometry x="150" y="10" width="100" height="40" as="geometry"/></mxCell><mxCell id="n9BHDYFtltxvlKAYg7nu-78" value="produto" style="ellipse;whiteSpace=wrap;html=1;align=center;" parent="1" vertex="1"><mxGeometry x="360" y="30" width="100" height="40" as="geometry"/></mxCell><mxCell id="n9BHDYFtltxvlKAYg7nu-273" style="edgeStyle=orthogonalEdgeStyle;rounded=0;orthogonalLoop=1;jettySize=auto;html=1;exitX=1;exitY=1;exitDx=0;exitDy=0;entryX=0;entryY=0.5;entryDx=0;entryDy=0;endArrow=none;endFill=0;" parent="1" source="n9BHDYFtltxvlKAYg7nu-80" target="n9BHDYFtltxvlKAYg7nu-76" edge="1"><mxGeometry relative="1" as="geometry"/></mxCell><mxCell id="n9BHDYFtltxvlKAYg7nu-80" value="data operação" style="ellipse;whiteSpace=wrap;html=1;align=center;" parent="1" vertex="1"><mxGeometry x="50" y="35" width="100" height="40" as="geometry"/></mxCell><mxCell id="n9BHDYFtltxvlKAYg7nu-266" style="edgeStyle=orthogonalEdgeStyle;rounded=0;orthogonalLoop=1;jettySize=auto;html=1;exitX=1;exitY=0;exitDx=0;exitDy=0;entryX=0;entryY=1;entryDx=0;entryDy=0;endArrow=none;endFill=0;" parent="1" source="n9BHDYFtltxvlKAYg7nu-81" target="n9BHDYFtltxvlKAYg7nu-83" edge="1"><mxGeometry relative="1" as="geometry"/></mxCell><mxCell id="n9BHDYFtltxvlKAYg7nu-267" style="edgeStyle=orthogonalEdgeStyle;rounded=0;orthogonalLoop=1;jettySize=auto;html=1;exitX=1;exitY=1;exitDx=0;exitDy=0;entryX=0;entryY=0;entryDx=0;entryDy=0;endArrow=none;endFill=0;" parent="1" source="n9BHDYFtltxvlKAYg7nu-81" target="n9BHDYFtltxvlKAYg7nu-82" edge="1"><mxGeometry relative="1" as="geometry"/></mxCell><mxCell id="n9BHDYFtltxvlKAYg7nu-81" value="Restrição" style="whiteSpace=wrap;html=1;align=center;" parent="1" vertex="1"><mxGeometry x="800" y="100" width="100" height="40" as="geometry"/></mxCell><mxCell id="n9BHDYFtltxvlKAYg7nu-82" value="zona geográfica" style="ellipse;whiteSpace=wrap;html=1;align=center;" parent="1" vertex="1"><mxGeometry x="910" y="150" width="100" height="40" as="geometry"/></mxCell><mxCell id="n9BHDYFtltxvlKAYg7nu-83" value="período" style="ellipse;whiteSpace=wrap;html=1;align=center;" parent="1" vertex="1"><mxGeometry x="910" y="40" width="100" height="40" as="geometry"/></mxCell><mxCell id="n9BHDYFtltxvlKAYg7nu-84" value="Calendário Operações" style="whiteSpace=wrap;html=1;align=center;" parent="1" vertex="1"><mxGeometry x="-250" y="230" width="100" height="40" as="geometry"/></mxCell><mxCell id="n9BHDYFtltxvlKAYg7nu-85" value="estado" style="ellipse;whiteSpace=wrap;html=1;align=center;" parent="1" vertex="1"><mxGeometry x="260" y="10" width="100" height="40" as="geometry"/></mxCell><mxCell id="n9BHDYFtltxvlKAYg7nu-181" style="edgeStyle=orthogonalEdgeStyle;rounded=0;orthogonalLoop=1;jettySize=auto;html=1;exitX=0.5;exitY=1;exitDx=0;exitDy=0;entryX=0.75;entryY=0;entryDx=0;entryDy=0;endArrow=none;endFill=0;" parent="1" source="n9BHDYFtltxvlKAYg7nu-86" target="n9BHDYFtltxvlKAYg7nu-44" edge="1"><mxGeometry relative="1" as="geometry"/></mxCell><mxCell id="n9BHDYFtltxvlKAYg7nu-86" value="identificador" style="ellipse;whiteSpace=wrap;html=1;align=center;" parent="1" vertex="1"><mxGeometry x="1100" y="1790" width="100" height="40" as="geometry"/></mxCell><mxCell id="n9BHDYFtltxvlKAYg7nu-180" style="edgeStyle=orthogonalEdgeStyle;rounded=0;orthogonalLoop=1;jettySize=auto;html=1;exitX=0.5;exitY=1;exitDx=0;exitDy=0;entryX=0.25;entryY=0;entryDx=0;entryDy=0;endArrow=none;endFill=0;" parent="1" source="n9BHDYFtltxvlKAYg7nu-87" target="n9BHDYFtltxvlKAYg7nu-44" edge="1"><mxGeometry relative="1" as="geometry"/></mxCell><mxCell id="n9BHDYFtltxvlKAYg7nu-87" value="Valor Referencia" style="ellipse;whiteSpace=wrap;html=1;align=center;" parent="1" vertex="1"><mxGeometry x="1010" y="1840" width="100" height="40" as="geometry"/></mxCell><mxCell id="n9BHDYFtltxvlKAYg7nu-211" style="edgeStyle=orthogonalEdgeStyle;rounded=0;orthogonalLoop=1;jettySize=auto;html=1;exitX=1;exitY=1;exitDx=0;exitDy=0;entryX=0;entryY=0;entryDx=0;entryDy=0;endArrow=none;endFill=0;" parent="1" source="n9BHDYFtltxvlKAYg7nu-88" target="n9BHDYFtltxvlKAYg7nu-89" edge="1"><mxGeometry relative="1" as="geometry"/></mxCell><mxCell id="n9BHDYFtltxvlKAYg7nu-212" style="edgeStyle=orthogonalEdgeStyle;rounded=0;orthogonalLoop=1;jettySize=auto;html=1;exitX=0.75;exitY=1;exitDx=0;exitDy=0;entryX=0.5;entryY=0;entryDx=0;entryDy=0;endArrow=none;endFill=0;" parent="1" source="n9BHDYFtltxvlKAYg7nu-88" target="n9BHDYFtltxvlKAYg7nu-92" edge="1"><mxGeometry relative="1" as="geometry"/></mxCell><mxCell id="n9BHDYFtltxvlKAYg7nu-88" value="Leitura" style="whiteSpace=wrap;html=1;align=center;" parent="1" vertex="1"><mxGeometry x="610" y="1940" width="100" height="40" as="geometry"/></mxCell><mxCell id="n9BHDYFtltxvlKAYg7nu-89" value="Valor lido" style="ellipse;whiteSpace=wrap;html=1;align=center;" parent="1" vertex="1"><mxGeometry x="700" y="2010" width="100" height="40" as="geometry"/></mxCell><mxCell id="n9BHDYFtltxvlKAYg7nu-213" style="edgeStyle=orthogonalEdgeStyle;rounded=0;orthogonalLoop=1;jettySize=auto;html=1;exitX=1;exitY=0;exitDx=0;exitDy=0;entryX=0.25;entryY=1;entryDx=0;entryDy=0;endArrow=none;endFill=0;" parent="1" source="n9BHDYFtltxvlKAYg7nu-90" target="n9BHDYFtltxvlKAYg7nu-88" edge="1"><mxGeometry relative="1" as="geometry"/></mxCell><mxCell id="n9BHDYFtltxvlKAYg7nu-90" value="Data" style="ellipse;whiteSpace=wrap;html=1;align=center;" parent="1" vertex="1"><mxGeometry x="520" y="2074" width="100" height="40" as="geometry"/></mxCell><mxCell id="n9BHDYFtltxvlKAYg7nu-214" style="edgeStyle=orthogonalEdgeStyle;rounded=0;orthogonalLoop=1;jettySize=auto;html=1;exitX=1;exitY=0;exitDx=0;exitDy=0;entryX=0;entryY=1;entryDx=0;entryDy=0;endArrow=none;endFill=0;" parent="1" source="n9BHDYFtltxvlKAYg7nu-91" target="n9BHDYFtltxvlKAYg7nu-88" edge="1"><mxGeometry relative="1" as="geometry"/></mxCell><mxCell id="n9BHDYFtltxvlKAYg7nu-91" value="Hora" style="ellipse;whiteSpace=wrap;html=1;align=center;" parent="1" vertex="1"><mxGeometry x="490" y="2000" width="100" height="40" as="geometry"/></mxCell><mxCell id="n9BHDYFtltxvlKAYg7nu-92" value="Minuto" style="ellipse;whiteSpace=wrap;html=1;align=center;" parent="1" vertex="1"><mxGeometry x="630" y="2070" width="100" height="40" as="geometry"/></mxCell><mxCell id="n9BHDYFtltxvlKAYg7nu-93" value="Tipo Sensor" style="whiteSpace=wrap;html=1;align=center;" parent="1" vertex="1"><mxGeometry x="1557" y="1840" width="100" height="40" as="geometry"/></mxCell><mxCell id="n9BHDYFtltxvlKAYg7nu-237" style="edgeStyle=orthogonalEdgeStyle;rounded=0;orthogonalLoop=1;jettySize=auto;html=1;exitX=0;exitY=0;exitDx=0;exitDy=0;entryX=1;entryY=0.5;entryDx=0;entryDy=0;endArrow=none;endFill=0;" parent="1" source="n9BHDYFtltxvlKAYg7nu-94" target="n9BHDYFtltxvlKAYg7nu-95" edge="1"><mxGeometry relative="1" as="geometry"/></mxCell><mxCell id="n9BHDYFtltxvlKAYg7nu-250" style="edgeStyle=orthogonalEdgeStyle;rounded=0;orthogonalLoop=1;jettySize=auto;html=1;exitX=1;exitY=0;exitDx=0;exitDy=0;entryX=0;entryY=0.5;entryDx=0;entryDy=0;endArrow=none;endFill=0;" parent="1" source="n9BHDYFtltxvlKAYg7nu-94" target="n9BHDYFtltxvlKAYg7nu-244" edge="1"><mxGeometry relative="1" as="geometry"/></mxCell><mxCell id="n9BHDYFtltxvlKAYg7nu-252" style="edgeStyle=orthogonalEdgeStyle;rounded=0;orthogonalLoop=1;jettySize=auto;html=1;exitX=1;exitY=1;exitDx=0;exitDy=0;entryX=0;entryY=0.5;entryDx=0;entryDy=0;endArrow=none;endFill=0;" parent="1" source="n9BHDYFtltxvlKAYg7nu-94" target="n9BHDYFtltxvlKAYg7nu-243" edge="1"><mxGeometry relative="1" as="geometry"/></mxCell><mxCell id="n9BHDYFtltxvlKAYg7nu-94" value="Utilizador" style="whiteSpace=wrap;html=1;align=center;" parent="1" vertex="1"><mxGeometry x="780" y="360" width="100" height="40" as="geometry"/></mxCell><mxCell id="n9BHDYFtltxvlKAYg7nu-95" value="email" style="ellipse;whiteSpace=wrap;html=1;align=center;" parent="1" vertex="1"><mxGeometry x="660" y="310" width="100" height="40" as="geometry"/></mxCell><mxCell id="n9BHDYFtltxvlKAYg7nu-238" style="edgeStyle=orthogonalEdgeStyle;rounded=0;orthogonalLoop=1;jettySize=auto;html=1;exitX=1;exitY=0;exitDx=0;exitDy=0;entryX=0;entryY=1;entryDx=0;entryDy=0;endArrow=none;endFill=0;" parent="1" source="n9BHDYFtltxvlKAYg7nu-96" target="n9BHDYFtltxvlKAYg7nu-94" edge="1"><mxGeometry relative="1" as="geometry"/></mxCell><mxCell id="n9BHDYFtltxvlKAYg7nu-96" value="password" style="ellipse;whiteSpace=wrap;html=1;align=center;" parent="1" vertex="1"><mxGeometry x="660" y="410" width="100" height="40" as="geometry"/></mxCell><mxCell id="n9BHDYFtltxvlKAYg7nu-98" value="valor" style="ellipse;whiteSpace=wrap;html=1;align=center;" parent="1" vertex="1"><mxGeometry x="150" y="905" width="100" height="40" as="geometry"/></mxCell><mxCell id="21" style="edgeStyle=orthogonalEdgeStyle;rounded=0;orthogonalLoop=1;jettySize=auto;html=1;exitX=0.5;exitY=1;exitDx=0;exitDy=0;entryX=1;entryY=0;entryDx=0;entryDy=0;endArrow=none;endFill=0;" edge="1" parent="1" source="n9BHDYFtltxvlKAYg7nu-99" target="n9BHDYFtltxvlKAYg7nu-215"><mxGeometry relative="1" as="geometry"/></mxCell><mxCell id="n9BHDYFtltxvlKAYg7nu-99" value="unidade" style="ellipse;whiteSpace=wrap;html=1;align=center;" parent="1" vertex="1"><mxGeometry x="280" y="905" width="100" height="40" as="geometry"/></mxCell><mxCell id="n9BHDYFtltxvlKAYg7nu-106" style="edgeStyle=orthogonalEdgeStyle;rounded=0;orthogonalLoop=1;jettySize=auto;html=1;exitX=0;exitY=0.5;exitDx=0;exitDy=0;entryX=1;entryY=0.5;entryDx=0;entryDy=0;endArrow=none;endFill=0;" parent="1" source="n9BHDYFtltxvlKAYg7nu-105" target="n9BHDYFtltxvlKAYg7nu-20" edge="1"><mxGeometry relative="1" as="geometry"/></mxCell><mxCell id="n9BHDYFtltxvlKAYg7nu-105" value="tem" style="shape=rhombus;perimeter=rhombusPerimeter;whiteSpace=wrap;html=1;align=center;" parent="1" vertex="1"><mxGeometry x="-690" y="880" width="120" height="60" as="geometry"/></mxCell><mxCell id="n9BHDYFtltxvlKAYg7nu-108" value="N" style="text;html=1;strokeColor=none;fillColor=none;align=center;verticalAlign=middle;whiteSpace=wrap;rounded=0;" parent="1" vertex="1"><mxGeometry x="-770" y="900" width="50" height="10" as="geometry"/></mxCell><mxCell id="n9BHDYFtltxvlKAYg7nu-109" value="1" style="text;html=1;strokeColor=none;fillColor=none;align=center;verticalAlign=middle;whiteSpace=wrap;rounded=0;" parent="1" vertex="1"><mxGeometry x="-530" y="895" width="30" height="20" as="geometry"/></mxCell><mxCell id="n9BHDYFtltxvlKAYg7nu-126" style="edgeStyle=orthogonalEdgeStyle;rounded=0;orthogonalLoop=1;jettySize=auto;html=1;exitX=0;exitY=0.5;exitDx=0;exitDy=0;entryX=1.002;entryY=0.62;entryDx=0;entryDy=0;entryPerimeter=0;endArrow=none;endFill=0;" parent="1" source="n9BHDYFtltxvlKAYg7nu-110" target="n9BHDYFtltxvlKAYg7nu-7" edge="1"><mxGeometry relative="1" as="geometry"/></mxCell><mxCell id="n9BHDYFtltxvlKAYg7nu-110" value="pode ser" style="shape=rhombus;perimeter=rhombusPerimeter;whiteSpace=wrap;html=1;align=center;" parent="1" vertex="1"><mxGeometry x="-1000" y="880" width="120" height="60" as="geometry"/></mxCell><mxCell id="n9BHDYFtltxvlKAYg7nu-118" style="edgeStyle=orthogonalEdgeStyle;rounded=0;orthogonalLoop=1;jettySize=auto;html=1;exitX=0;exitY=0.5;exitDx=0;exitDy=0;entryX=1;entryY=0.5;entryDx=0;entryDy=0;endArrow=none;endFill=0;" parent="1" source="n9BHDYFtltxvlKAYg7nu-113" target="n9BHDYFtltxvlKAYg7nu-5" edge="1"><mxGeometry relative="1" as="geometry"/></mxCell><mxCell id="n9BHDYFtltxvlKAYg7nu-113" value="pode ser" style="shape=rhombus;perimeter=rhombusPerimeter;whiteSpace=wrap;html=1;align=center;" parent="1" vertex="1"><mxGeometry x="-1000" y="800" width="120" height="60" as="geometry"/></mxCell><mxCell id="n9BHDYFtltxvlKAYg7nu-116" style="edgeStyle=orthogonalEdgeStyle;rounded=0;orthogonalLoop=1;jettySize=auto;html=1;exitX=0;exitY=0.5;exitDx=0;exitDy=0;entryX=1;entryY=0.5;entryDx=0;entryDy=0;endArrow=none;endFill=0;" parent="1" source="n9BHDYFtltxvlKAYg7nu-114" target="n9BHDYFtltxvlKAYg7nu-6" edge="1"><mxGeometry relative="1" as="geometry"/></mxCell><mxCell id="n9BHDYFtltxvlKAYg7nu-114" value="pode ser" style="shape=rhombus;perimeter=rhombusPerimeter;whiteSpace=wrap;html=1;align=center;" parent="1" vertex="1"><mxGeometry x="-1000" y="950" width="120" height="60" as="geometry"/></mxCell><mxCell id="n9BHDYFtltxvlKAYg7nu-119" value="1" style="text;html=1;strokeColor=none;fillColor=none;align=center;verticalAlign=middle;whiteSpace=wrap;rounded=0;" parent="1" vertex="1"><mxGeometry x="-830" y="865" width="60" height="30" as="geometry"/></mxCell><mxCell id="n9BHDYFtltxvlKAYg7nu-120" value="1" style="text;html=1;strokeColor=none;fillColor=none;align=center;verticalAlign=middle;whiteSpace=wrap;rounded=0;" parent="1" vertex="1"><mxGeometry x="-830" y="925" width="60" height="30" as="geometry"/></mxCell><mxCell id="n9BHDYFtltxvlKAYg7nu-121" value="1" style="text;html=1;strokeColor=none;fillColor=none;align=center;verticalAlign=middle;whiteSpace=wrap;rounded=0;" parent="1" vertex="1"><mxGeometry x="-900" y="885" width="60" height="30" as="geometry"/></mxCell><mxCell id="n9BHDYFtltxvlKAYg7nu-122" value="1" style="text;html=1;strokeColor=none;fillColor=none;align=center;verticalAlign=middle;whiteSpace=wrap;rounded=0;" parent="1" vertex="1"><mxGeometry x="-1050" y="810" width="60" height="30" as="geometry"/></mxCell><mxCell id="n9BHDYFtltxvlKAYg7nu-127" value="1" style="text;html=1;strokeColor=none;fillColor=none;align=center;verticalAlign=middle;whiteSpace=wrap;rounded=0;" parent="1" vertex="1"><mxGeometry x="-1050" y="885" width="60" height="30" as="geometry"/></mxCell><mxCell id="n9BHDYFtltxvlKAYg7nu-128" value="1" style="text;html=1;strokeColor=none;fillColor=none;align=center;verticalAlign=middle;whiteSpace=wrap;rounded=0;" parent="1" vertex="1"><mxGeometry x="-1050" y="955" width="60" height="30" as="geometry"/></mxCell><mxCell id="n9BHDYFtltxvlKAYg7nu-132" style="edgeStyle=orthogonalEdgeStyle;rounded=0;orthogonalLoop=1;jettySize=auto;html=1;exitX=1;exitY=0.5;exitDx=0;exitDy=0;entryX=0;entryY=0.5;entryDx=0;entryDy=0;endArrow=none;endFill=0;" parent="1" source="n9BHDYFtltxvlKAYg7nu-130" target="n9BHDYFtltxvlKAYg7nu-9" edge="1"><mxGeometry relative="1" as="geometry"/></mxCell><mxCell id="n9BHDYFtltxvlKAYg7nu-130" value="tem" style="shape=rhombus;perimeter=rhombusPerimeter;whiteSpace=wrap;html=1;align=center;" parent="1" vertex="1"><mxGeometry x="-320" y="880" width="120" height="60" as="geometry"/></mxCell><mxCell id="n9BHDYFtltxvlKAYg7nu-133" value="N" style="text;html=1;strokeColor=none;fillColor=none;align=center;verticalAlign=middle;whiteSpace=wrap;rounded=0;" parent="1" vertex="1"><mxGeometry x="-150" y="890" width="60" height="30" as="geometry"/></mxCell><mxCell id="n9BHDYFtltxvlKAYg7nu-134" value="1" style="text;html=1;strokeColor=none;fillColor=none;align=center;verticalAlign=middle;whiteSpace=wrap;rounded=0;" parent="1" vertex="1"><mxGeometry x="-430" y="885" width="60" height="30" as="geometry"/></mxCell><mxCell id="n9BHDYFtltxvlKAYg7nu-139" style="edgeStyle=orthogonalEdgeStyle;rounded=0;orthogonalLoop=1;jettySize=auto;html=1;exitX=0.5;exitY=1;exitDx=0;exitDy=0;entryX=0.5;entryY=0;entryDx=0;entryDy=0;endArrow=none;endFill=0;" parent="1" source="n9BHDYFtltxvlKAYg7nu-136" target="n9BHDYFtltxvlKAYg7nu-10" edge="1"><mxGeometry relative="1" as="geometry"/></mxCell><mxCell id="n9BHDYFtltxvlKAYg7nu-219" style="edgeStyle=orthogonalEdgeStyle;rounded=0;orthogonalLoop=1;jettySize=auto;html=1;exitX=0;exitY=0.5;exitDx=0;exitDy=0;entryX=1;entryY=0.5;entryDx=0;entryDy=0;endArrow=none;endFill=0;" parent="1" source="n9BHDYFtltxvlKAYg7nu-136" target="n9BHDYFtltxvlKAYg7nu-218" edge="1"><mxGeometry relative="1" as="geometry"/></mxCell><mxCell id="n9BHDYFtltxvlKAYg7nu-136" value="possuí" style="shape=rhombus;perimeter=rhombusPerimeter;whiteSpace=wrap;html=1;align=center;" parent="1" vertex="1"><mxGeometry x="-130" y="1010" width="120" height="60" as="geometry"/></mxCell><mxCell id="n9BHDYFtltxvlKAYg7nu-140" value="N" style="text;html=1;strokeColor=none;fillColor=none;align=center;verticalAlign=middle;whiteSpace=wrap;rounded=0;" parent="1" vertex="1"><mxGeometry x="-80" y="1099" width="30" height="10" as="geometry"/></mxCell><mxCell id="n9BHDYFtltxvlKAYg7nu-141" value="N" style="text;html=1;strokeColor=none;fillColor=none;align=center;verticalAlign=middle;whiteSpace=wrap;rounded=0;" parent="1" vertex="1"><mxGeometry x="-110" y="925" width="60" height="30" as="geometry"/></mxCell><mxCell id="n9BHDYFtltxvlKAYg7nu-153" style="edgeStyle=orthogonalEdgeStyle;rounded=0;orthogonalLoop=1;jettySize=auto;html=1;exitX=1;exitY=0.5;exitDx=0;exitDy=0;endArrow=none;endFill=0;" parent="1" source="n9BHDYFtltxvlKAYg7nu-144" target="n9BHDYFtltxvlKAYg7nu-17" edge="1"><mxGeometry relative="1" as="geometry"/></mxCell><mxCell id="n9BHDYFtltxvlKAYg7nu-144" value="pode ser" style="shape=rhombus;perimeter=rhombusPerimeter;whiteSpace=wrap;html=1;align=center;direction=south;" parent="1" vertex="1"><mxGeometry x="-140" y="1200" width="60" height="120" as="geometry"/></mxCell><mxCell id="n9BHDYFtltxvlKAYg7nu-154" style="edgeStyle=orthogonalEdgeStyle;rounded=0;orthogonalLoop=1;jettySize=auto;html=1;exitX=1;exitY=0.5;exitDx=0;exitDy=0;endArrow=none;endFill=0;" parent="1" source="n9BHDYFtltxvlKAYg7nu-145" target="n9BHDYFtltxvlKAYg7nu-18" edge="1"><mxGeometry relative="1" as="geometry"/></mxCell><mxCell id="n9BHDYFtltxvlKAYg7nu-145" value="pode ser" style="shape=rhombus;perimeter=rhombusPerimeter;whiteSpace=wrap;html=1;align=center;direction=south;" parent="1" vertex="1"><mxGeometry x="-70" y="1200" width="60" height="120" as="geometry"/></mxCell><mxCell id="n9BHDYFtltxvlKAYg7nu-155" style="edgeStyle=orthogonalEdgeStyle;rounded=0;orthogonalLoop=1;jettySize=auto;html=1;exitX=1;exitY=0.5;exitDx=0;exitDy=0;entryX=0.5;entryY=0;entryDx=0;entryDy=0;endArrow=none;endFill=0;" parent="1" source="n9BHDYFtltxvlKAYg7nu-146" target="n9BHDYFtltxvlKAYg7nu-19" edge="1"><mxGeometry relative="1" as="geometry"/></mxCell><mxCell id="n9BHDYFtltxvlKAYg7nu-146" value="pode ser" style="shape=rhombus;perimeter=rhombusPerimeter;whiteSpace=wrap;html=1;align=center;direction=south;" parent="1" vertex="1"><mxGeometry x="20" y="1200" width="60" height="120" as="geometry"/></mxCell><mxCell id="n9BHDYFtltxvlKAYg7nu-152" style="edgeStyle=orthogonalEdgeStyle;rounded=0;orthogonalLoop=1;jettySize=auto;html=1;exitX=1;exitY=0.5;exitDx=0;exitDy=0;entryX=0.5;entryY=0;entryDx=0;entryDy=0;endArrow=none;endFill=0;" parent="1" source="n9BHDYFtltxvlKAYg7nu-147" target="n9BHDYFtltxvlKAYg7nu-16" edge="1"><mxGeometry relative="1" as="geometry"/></mxCell><mxCell id="n9BHDYFtltxvlKAYg7nu-147" value="pode ser" style="shape=rhombus;perimeter=rhombusPerimeter;whiteSpace=wrap;html=1;align=center;direction=south;" parent="1" vertex="1"><mxGeometry x="-220" y="1200" width="60" height="120" as="geometry"/></mxCell><mxCell id="n9BHDYFtltxvlKAYg7nu-156" value="1" style="text;html=1;strokeColor=none;fillColor=none;align=center;verticalAlign=middle;whiteSpace=wrap;rounded=0;" parent="1" vertex="1"><mxGeometry x="-290" y="1330" width="60" height="30" as="geometry"/></mxCell><mxCell id="n9BHDYFtltxvlKAYg7nu-157" value="1" style="text;html=1;strokeColor=none;fillColor=none;align=center;verticalAlign=middle;whiteSpace=wrap;rounded=0;" parent="1" vertex="1"><mxGeometry x="-180" y="1139" width="60" height="30" as="geometry"/></mxCell><mxCell id="n9BHDYFtltxvlKAYg7nu-158" value="1" style="text;html=1;strokeColor=none;fillColor=none;align=center;verticalAlign=middle;whiteSpace=wrap;rounded=0;" parent="1" vertex="1"><mxGeometry x="-170" y="1330" width="60" height="30" as="geometry"/></mxCell><mxCell id="n9BHDYFtltxvlKAYg7nu-159" value="1" style="text;html=1;strokeColor=none;fillColor=none;align=center;verticalAlign=middle;whiteSpace=wrap;rounded=0;" parent="1" vertex="1"><mxGeometry x="-30" y="1330" width="60" height="30" as="geometry"/></mxCell><mxCell id="n9BHDYFtltxvlKAYg7nu-160" value="1" style="text;html=1;strokeColor=none;fillColor=none;align=center;verticalAlign=middle;whiteSpace=wrap;rounded=0;" parent="1" vertex="1"><mxGeometry x="80" y="1330" width="60" height="30" as="geometry"/></mxCell><mxCell id="n9BHDYFtltxvlKAYg7nu-161" value="1" style="text;html=1;strokeColor=none;fillColor=none;align=center;verticalAlign=middle;whiteSpace=wrap;rounded=0;" parent="1" vertex="1"><mxGeometry x="-120" y="1160" width="60" height="30" as="geometry"/></mxCell><mxCell id="n9BHDYFtltxvlKAYg7nu-162" value="1" style="text;html=1;strokeColor=none;fillColor=none;align=center;verticalAlign=middle;whiteSpace=wrap;rounded=0;" parent="1" vertex="1"><mxGeometry x="-80" y="1170" width="60" height="30" as="geometry"/></mxCell><mxCell id="n9BHDYFtltxvlKAYg7nu-163" value="1" style="text;html=1;strokeColor=none;fillColor=none;align=center;verticalAlign=middle;whiteSpace=wrap;rounded=0;" parent="1" vertex="1"><mxGeometry x="-50" y="1140" width="60" height="30" as="geometry"/></mxCell><mxCell id="n9BHDYFtltxvlKAYg7nu-173" style="edgeStyle=orthogonalEdgeStyle;rounded=0;orthogonalLoop=1;jettySize=auto;html=1;exitX=1;exitY=0.5;exitDx=0;exitDy=0;entryX=0;entryY=0.5;entryDx=0;entryDy=0;endArrow=none;endFill=0;" parent="1" source="n9BHDYFtltxvlKAYg7nu-172" target="n9BHDYFtltxvlKAYg7nu-39" edge="1"><mxGeometry relative="1" as="geometry"/></mxCell><mxCell id="n9BHDYFtltxvlKAYg7nu-172" value="utiliza" style="shape=rhombus;perimeter=rhombusPerimeter;whiteSpace=wrap;html=1;align=center;" parent="1" vertex="1"><mxGeometry x="-910" y="1720" width="120" height="60" as="geometry"/></mxCell><mxCell id="n9BHDYFtltxvlKAYg7nu-175" value="N" style="text;html=1;strokeColor=none;fillColor=none;align=center;verticalAlign=middle;whiteSpace=wrap;rounded=0;" parent="1" vertex="1"><mxGeometry x="-1000" y="1730" width="60" height="30" as="geometry"/></mxCell><mxCell id="n9BHDYFtltxvlKAYg7nu-176" value="N" style="text;html=1;strokeColor=none;fillColor=none;align=center;verticalAlign=middle;whiteSpace=wrap;rounded=0;" parent="1" vertex="1"><mxGeometry x="-740" y="1730" width="60" height="30" as="geometry"/></mxCell><mxCell id="n9BHDYFtltxvlKAYg7nu-198" style="edgeStyle=orthogonalEdgeStyle;rounded=0;orthogonalLoop=1;jettySize=auto;html=1;exitX=1;exitY=0.5;exitDx=0;exitDy=0;entryX=0.75;entryY=0;entryDx=0;entryDy=0;endArrow=none;endFill=0;" parent="1" source="n9BHDYFtltxvlKAYg7nu-182" target="n9BHDYFtltxvlKAYg7nu-48" edge="1"><mxGeometry relative="1" as="geometry"/></mxCell><mxCell id="n9BHDYFtltxvlKAYg7nu-204" style="edgeStyle=orthogonalEdgeStyle;rounded=0;orthogonalLoop=1;jettySize=auto;html=1;exitX=0;exitY=0;exitDx=0;exitDy=0;entryX=0.25;entryY=1;entryDx=0;entryDy=0;endArrow=none;endFill=0;" parent="1" source="n9BHDYFtltxvlKAYg7nu-182" target="n9BHDYFtltxvlKAYg7nu-44" edge="1"><mxGeometry relative="1" as="geometry"/></mxCell><mxCell id="n9BHDYFtltxvlKAYg7nu-182" value="pode ser" style="shape=rhombus;perimeter=rhombusPerimeter;whiteSpace=wrap;html=1;align=center;direction=south;" parent="1" vertex="1"><mxGeometry x="1030" y="2100" width="60" height="120" as="geometry"/></mxCell><mxCell id="n9BHDYFtltxvlKAYg7nu-199" style="edgeStyle=orthogonalEdgeStyle;rounded=0;orthogonalLoop=1;jettySize=auto;html=1;exitX=1;exitY=0.5;exitDx=0;exitDy=0;entryX=0.322;entryY=0.02;entryDx=0;entryDy=0;entryPerimeter=0;endArrow=none;endFill=0;" parent="1" source="n9BHDYFtltxvlKAYg7nu-183" target="n9BHDYFtltxvlKAYg7nu-49" edge="1"><mxGeometry relative="1" as="geometry"/></mxCell><mxCell id="n9BHDYFtltxvlKAYg7nu-183" value="pode ser" style="shape=rhombus;perimeter=rhombusPerimeter;whiteSpace=wrap;html=1;align=center;direction=south;" parent="1" vertex="1"><mxGeometry x="1100" y="2100" width="60" height="120" as="geometry"/></mxCell><mxCell id="n9BHDYFtltxvlKAYg7nu-200" style="edgeStyle=orthogonalEdgeStyle;rounded=0;orthogonalLoop=1;jettySize=auto;html=1;exitX=1;exitY=0.5;exitDx=0;exitDy=0;entryX=0.25;entryY=0;entryDx=0;entryDy=0;endArrow=none;endFill=0;" parent="1" source="n9BHDYFtltxvlKAYg7nu-184" target="n9BHDYFtltxvlKAYg7nu-50" edge="1"><mxGeometry relative="1" as="geometry"/></mxCell><mxCell id="n9BHDYFtltxvlKAYg7nu-184" value="pode ser" style="shape=rhombus;perimeter=rhombusPerimeter;whiteSpace=wrap;html=1;align=center;direction=south;" parent="1" vertex="1"><mxGeometry x="1200" y="2120" width="60" height="120" as="geometry"/></mxCell><mxCell id="n9BHDYFtltxvlKAYg7nu-201" style="edgeStyle=orthogonalEdgeStyle;rounded=0;orthogonalLoop=1;jettySize=auto;html=1;exitX=1;exitY=0.5;exitDx=0;exitDy=0;entryX=0.118;entryY=-0.04;entryDx=0;entryDy=0;entryPerimeter=0;endArrow=none;endFill=0;" parent="1" source="n9BHDYFtltxvlKAYg7nu-185" target="n9BHDYFtltxvlKAYg7nu-52" edge="1"><mxGeometry relative="1" as="geometry"/></mxCell><mxCell id="n9BHDYFtltxvlKAYg7nu-185" value="pode ser" style="shape=rhombus;perimeter=rhombusPerimeter;whiteSpace=wrap;html=1;align=center;direction=south;" parent="1" vertex="1"><mxGeometry x="1270" y="2110" width="60" height="120" as="geometry"/></mxCell><mxCell id="n9BHDYFtltxvlKAYg7nu-186" value="pode ser" style="shape=rhombus;perimeter=rhombusPerimeter;whiteSpace=wrap;html=1;align=center;direction=south;" parent="1" vertex="1"><mxGeometry x="950" y="2100" width="60" height="120" as="geometry"/></mxCell><mxCell id="n9BHDYFtltxvlKAYg7nu-187" value="Fertilização" style="whiteSpace=wrap;html=1;align=center;" parent="1" vertex="1"><mxGeometry x="-555" y="1720" width="100" height="40" as="geometry"/></mxCell><mxCell id="n9BHDYFtltxvlKAYg7nu-195" style="edgeStyle=orthogonalEdgeStyle;rounded=0;orthogonalLoop=1;jettySize=auto;html=1;exitX=0;exitY=0.5;exitDx=0;exitDy=0;entryX=1;entryY=0;entryDx=0;entryDy=0;endArrow=none;endFill=0;" parent="1" source="n9BHDYFtltxvlKAYg7nu-193" target="n9BHDYFtltxvlKAYg7nu-44" edge="1"><mxGeometry relative="1" as="geometry"/></mxCell><mxCell id="n9BHDYFtltxvlKAYg7nu-196" style="edgeStyle=orthogonalEdgeStyle;rounded=0;orthogonalLoop=1;jettySize=auto;html=1;exitX=1;exitY=0.5;exitDx=0;exitDy=0;entryX=0;entryY=0.5;entryDx=0;entryDy=0;endArrow=none;endFill=0;" parent="1" source="n9BHDYFtltxvlKAYg7nu-193" target="n9BHDYFtltxvlKAYg7nu-93" edge="1"><mxGeometry relative="1" as="geometry"/></mxCell><mxCell id="n9BHDYFtltxvlKAYg7nu-193" value="possuí" style="shape=rhombus;perimeter=rhombusPerimeter;whiteSpace=wrap;html=1;align=center;" parent="1" vertex="1"><mxGeometry x="1350" y="1839" width="120" height="60" as="geometry"/></mxCell><mxCell id="n9BHDYFtltxvlKAYg7nu-207" style="edgeStyle=orthogonalEdgeStyle;rounded=0;orthogonalLoop=1;jettySize=auto;html=1;exitX=1;exitY=0.5;exitDx=0;exitDy=0;entryX=0;entryY=0.25;entryDx=0;entryDy=0;endArrow=none;endFill=0;" parent="1" source="n9BHDYFtltxvlKAYg7nu-206" target="n9BHDYFtltxvlKAYg7nu-44" edge="1"><mxGeometry relative="1" as="geometry"/></mxCell><mxCell id="n9BHDYFtltxvlKAYg7nu-208" style="edgeStyle=orthogonalEdgeStyle;rounded=0;orthogonalLoop=1;jettySize=auto;html=1;exitX=0;exitY=0.5;exitDx=0;exitDy=0;entryX=1;entryY=0.5;entryDx=0;entryDy=0;endArrow=none;endFill=0;" parent="1" source="n9BHDYFtltxvlKAYg7nu-206" target="n9BHDYFtltxvlKAYg7nu-88" edge="1"><mxGeometry relative="1" as="geometry"/></mxCell><mxCell id="n9BHDYFtltxvlKAYg7nu-206" value="executa" style="shape=rhombus;perimeter=rhombusPerimeter;whiteSpace=wrap;html=1;align=center;" parent="1" vertex="1"><mxGeometry x="770" y="1930" width="120" height="60" as="geometry"/></mxCell><mxCell id="n9BHDYFtltxvlKAYg7nu-209" value="1" style="text;html=1;strokeColor=none;fillColor=none;align=center;verticalAlign=middle;whiteSpace=wrap;rounded=0;" parent="1" vertex="1"><mxGeometry x="1040" y="1919" width="60" height="30" as="geometry"/></mxCell><mxCell id="n9BHDYFtltxvlKAYg7nu-210" value="N" style="text;html=1;strokeColor=none;fillColor=none;align=center;verticalAlign=middle;whiteSpace=wrap;rounded=0;" parent="1" vertex="1"><mxGeometry x="700" y="1930" width="60" height="30" as="geometry"/></mxCell><mxCell id="n9BHDYFtltxvlKAYg7nu-227" style="edgeStyle=orthogonalEdgeStyle;rounded=0;orthogonalLoop=1;jettySize=auto;html=1;endArrow=none;endFill=0;exitX=0;exitY=0.5;exitDx=0;exitDy=0;" parent="1" source="n9BHDYFtltxvlKAYg7nu-215" edge="1"><mxGeometry relative="1" as="geometry"><mxPoint x="190" y="920" as="sourcePoint"/><mxPoint x="-10" y="930" as="targetPoint"/><Array as="points"><mxPoint x="-10" y="1015"/></Array></mxGeometry></mxCell><mxCell id="n9BHDYFtltxvlKAYg7nu-228" style="edgeStyle=orthogonalEdgeStyle;rounded=0;orthogonalLoop=1;jettySize=auto;html=1;exitX=0.5;exitY=1;exitDx=0;exitDy=0;entryX=1;entryY=0;entryDx=0;entryDy=0;endArrow=none;endFill=0;" parent="1" source="n9BHDYFtltxvlKAYg7nu-215" target="n9BHDYFtltxvlKAYg7nu-10" edge="1"><mxGeometry relative="1" as="geometry"/></mxCell><mxCell id="n9BHDYFtltxvlKAYg7nu-215" value="tem" style="shape=rhombus;perimeter=rhombusPerimeter;whiteSpace=wrap;html=1;align=center;" parent="1" vertex="1"><mxGeometry x="200" y="985" width="120" height="60" as="geometry"/></mxCell><mxCell id="n9BHDYFtltxvlKAYg7nu-218" value="período Cultura" style="ellipse;whiteSpace=wrap;html=1;align=center;" parent="1" vertex="1"><mxGeometry x="-270" y="1020" width="100" height="40" as="geometry"/></mxCell><mxCell id="n9BHDYFtltxvlKAYg7nu-249" style="edgeStyle=orthogonalEdgeStyle;rounded=0;orthogonalLoop=1;jettySize=auto;html=1;exitX=0;exitY=0.5;exitDx=0;exitDy=0;entryX=0.5;entryY=0;entryDx=0;entryDy=0;endArrow=none;endFill=0;" parent="1" source="n9BHDYFtltxvlKAYg7nu-240" target="n9BHDYFtltxvlKAYg7nu-94" edge="1"><mxGeometry relative="1" as="geometry"/></mxCell><mxCell id="n9BHDYFtltxvlKAYg7nu-240" value="pode ser" style="shape=rhombus;perimeter=rhombusPerimeter;whiteSpace=wrap;html=1;align=center;" parent="1" vertex="1"><mxGeometry x="900" y="220" width="120" height="60" as="geometry"/></mxCell><mxCell id="n9BHDYFtltxvlKAYg7nu-247" style="edgeStyle=orthogonalEdgeStyle;rounded=0;orthogonalLoop=1;jettySize=auto;html=1;exitX=1;exitY=0.5;exitDx=0;exitDy=0;entryX=0;entryY=0.5;entryDx=0;entryDy=0;endArrow=none;endFill=0;" parent="1" source="n9BHDYFtltxvlKAYg7nu-242" target="n9BHDYFtltxvlKAYg7nu-53" edge="1"><mxGeometry relative="1" as="geometry"/></mxCell><mxCell id="n9BHDYFtltxvlKAYg7nu-251" style="edgeStyle=orthogonalEdgeStyle;rounded=0;orthogonalLoop=1;jettySize=auto;html=1;exitX=0;exitY=0.5;exitDx=0;exitDy=0;entryX=1;entryY=0.75;entryDx=0;entryDy=0;endArrow=none;endFill=0;" parent="1" source="n9BHDYFtltxvlKAYg7nu-242" target="n9BHDYFtltxvlKAYg7nu-94" edge="1"><mxGeometry relative="1" as="geometry"/></mxCell><mxCell id="n9BHDYFtltxvlKAYg7nu-242" value="pode ser" style="shape=rhombus;perimeter=rhombusPerimeter;whiteSpace=wrap;html=1;align=center;" parent="1" vertex="1"><mxGeometry x="900" y="360" width="120" height="60" as="geometry"/></mxCell><mxCell id="n9BHDYFtltxvlKAYg7nu-248" style="edgeStyle=orthogonalEdgeStyle;rounded=0;orthogonalLoop=1;jettySize=auto;html=1;exitX=1;exitY=0.5;exitDx=0;exitDy=0;entryX=0;entryY=0.5;entryDx=0;entryDy=0;endArrow=none;endFill=0;" parent="1" source="n9BHDYFtltxvlKAYg7nu-243" target="n9BHDYFtltxvlKAYg7nu-54" edge="1"><mxGeometry relative="1" as="geometry"/></mxCell><mxCell id="n9BHDYFtltxvlKAYg7nu-243" value="pode ser" style="shape=rhombus;perimeter=rhombusPerimeter;whiteSpace=wrap;html=1;align=center;" parent="1" vertex="1"><mxGeometry x="900" y="440" width="120" height="60" as="geometry"/></mxCell><mxCell id="n9BHDYFtltxvlKAYg7nu-246" style="edgeStyle=orthogonalEdgeStyle;rounded=0;orthogonalLoop=1;jettySize=auto;html=1;exitX=1;exitY=0.5;exitDx=0;exitDy=0;entryX=0;entryY=0.5;entryDx=0;entryDy=0;endArrow=none;endFill=0;" parent="1" source="n9BHDYFtltxvlKAYg7nu-244" target="n9BHDYFtltxvlKAYg7nu-57" edge="1"><mxGeometry relative="1" as="geometry"/></mxCell><mxCell id="n9BHDYFtltxvlKAYg7nu-244" value="pode ser" style="shape=rhombus;perimeter=rhombusPerimeter;whiteSpace=wrap;html=1;align=center;" parent="1" vertex="1"><mxGeometry x="900" y="295" width="120" height="60" as="geometry"/></mxCell><mxCell id="n9BHDYFtltxvlKAYg7nu-257" value="1" style="text;html=1;strokeColor=none;fillColor=none;align=center;verticalAlign=middle;whiteSpace=wrap;rounded=0;" parent="1" vertex="1"><mxGeometry x="1020" y="225" width="60" height="30" as="geometry"/></mxCell><mxCell id="n9BHDYFtltxvlKAYg7nu-258" value="1" style="text;html=1;strokeColor=none;fillColor=none;align=center;verticalAlign=middle;whiteSpace=wrap;rounded=0;" parent="1" vertex="1"><mxGeometry x="1020" y="300" width="60" height="30" as="geometry"/></mxCell><mxCell id="n9BHDYFtltxvlKAYg7nu-259" value="1" style="text;html=1;strokeColor=none;fillColor=none;align=center;verticalAlign=middle;whiteSpace=wrap;rounded=0;" parent="1" vertex="1"><mxGeometry x="1030" y="365" width="60" height="30" as="geometry"/></mxCell><mxCell id="n9BHDYFtltxvlKAYg7nu-260" value="1" style="text;html=1;strokeColor=none;fillColor=none;align=center;verticalAlign=middle;whiteSpace=wrap;rounded=0;" parent="1" vertex="1"><mxGeometry x="1070" y="465" width="10" height="30" as="geometry"/></mxCell><mxCell id="n9BHDYFtltxvlKAYg7nu-262" value="1" style="text;html=1;strokeColor=none;fillColor=none;align=center;verticalAlign=middle;whiteSpace=wrap;rounded=0;" parent="1" vertex="1"><mxGeometry x="810" y="335" width="60" height="30" as="geometry"/></mxCell><mxCell id="n9BHDYFtltxvlKAYg7nu-263" value="1" style="text;html=1;strokeColor=none;fillColor=none;align=center;verticalAlign=middle;whiteSpace=wrap;rounded=0;" parent="1" vertex="1"><mxGeometry x="860" y="335" width="60" height="30" as="geometry"/></mxCell><mxCell id="n9BHDYFtltxvlKAYg7nu-264" value="1" style="text;html=1;strokeColor=none;fillColor=none;align=center;verticalAlign=middle;whiteSpace=wrap;rounded=0;" parent="1" vertex="1"><mxGeometry x="860" y="390" width="60" height="30" as="geometry"/></mxCell><mxCell id="n9BHDYFtltxvlKAYg7nu-265" value="1" style="text;html=1;strokeColor=none;fillColor=none;align=center;verticalAlign=middle;whiteSpace=wrap;rounded=0;" parent="1" vertex="1"><mxGeometry x="830" y="400" width="60" height="30" as="geometry"/></mxCell><mxCell id="n9BHDYFtltxvlKAYg7nu-284" value="1" style="text;html=1;strokeColor=none;fillColor=none;align=center;verticalAlign=middle;whiteSpace=wrap;rounded=0;" parent="1" vertex="1"><mxGeometry x="1110" y="497.5" width="20" height="15" as="geometry"/></mxCell><mxCell id="n9BHDYFtltxvlKAYg7nu-290" value="N" style="text;html=1;strokeColor=none;fillColor=none;align=center;verticalAlign=middle;whiteSpace=wrap;rounded=0;" parent="1" vertex="1"><mxGeometry x="1000" y="790" width="30" height="30" as="geometry"/></mxCell><mxCell id="n9BHDYFtltxvlKAYg7nu-291" value="Cabaz" style="whiteSpace=wrap;html=1;align=center;" parent="1" vertex="1"><mxGeometry x="-60" y="320" width="100" height="40" as="geometry"/></mxCell><mxCell id="n9BHDYFtltxvlKAYg7nu-292" value="tem" style="shape=rhombus;perimeter=rhombusPerimeter;whiteSpace=wrap;html=1;align=center;" parent="1" vertex="1"><mxGeometry x="20" y="500" width="120" height="60" as="geometry"/></mxCell><mxCell id="n9BHDYFtltxvlKAYg7nu-296" style="edgeStyle=orthogonalEdgeStyle;rounded=0;orthogonalLoop=1;jettySize=auto;html=1;exitX=1;exitY=0.5;exitDx=0;exitDy=0;entryX=0;entryY=0.5;entryDx=0;entryDy=0;endArrow=none;endFill=0;" parent="1" source="n9BHDYFtltxvlKAYg7nu-295" target="n9BHDYFtltxvlKAYg7nu-81" edge="1"><mxGeometry relative="1" as="geometry"/></mxCell><mxCell id="n9BHDYFtltxvlKAYg7nu-297" style="edgeStyle=orthogonalEdgeStyle;rounded=0;orthogonalLoop=1;jettySize=auto;html=1;exitX=0;exitY=0.5;exitDx=0;exitDy=0;entryX=0.5;entryY=1;entryDx=0;entryDy=0;endArrow=none;endFill=0;" parent="1" source="n9BHDYFtltxvlKAYg7nu-295" target="n9BHDYFtltxvlKAYg7nu-76" edge="1"><mxGeometry relative="1" as="geometry"/></mxCell><mxCell id="n9BHDYFtltxvlKAYg7nu-295" value="associada" style="shape=rhombus;perimeter=rhombusPerimeter;whiteSpace=wrap;html=1;align=center;" parent="1" vertex="1"><mxGeometry x="540" y="120" width="120" height="60" as="geometry"/></mxCell><mxCell id="n9BHDYFtltxvlKAYg7nu-298" value="N" style="text;html=1;strokeColor=none;fillColor=none;align=center;verticalAlign=middle;whiteSpace=wrap;rounded=0;" parent="1" vertex="1"><mxGeometry x="210" y="135" width="60" height="30" as="geometry"/></mxCell><mxCell id="n9BHDYFtltxvlKAYg7nu-299" value="N" style="text;html=1;strokeColor=none;fillColor=none;align=center;verticalAlign=middle;whiteSpace=wrap;rounded=0;" parent="1" vertex="1"><mxGeometry x="760" y="110" width="60" height="30" as="geometry"/></mxCell><mxCell id="OKjxkkXSC3GkU-OfnmQm-1" value="codigo&lt;br&gt;interno" style="ellipse;whiteSpace=wrap;html=1;align=center;" parent="1" vertex="1"><mxGeometry x="1220" y="355" width="100" height="40" as="geometry"/></mxCell><mxCell id="sahUQvl5ozFRLX7pKj-Z-73" style="edgeStyle=orthogonalEdgeStyle;rounded=0;orthogonalLoop=1;jettySize=auto;html=1;exitX=0;exitY=0.5;exitDx=0;exitDy=0;entryX=1.002;entryY=0.358;entryDx=0;entryDy=0;entryPerimeter=0;endArrow=none;endFill=0;" parent="1" source="OKjxkkXSC3GkU-OfnmQm-2" target="n9BHDYFtltxvlKAYg7nu-54" edge="1"><mxGeometry relative="1" as="geometry"/></mxCell><mxCell id="OKjxkkXSC3GkU-OfnmQm-2" value="nome" style="ellipse;whiteSpace=wrap;html=1;align=center;" parent="1" vertex="1"><mxGeometry x="1220" y="410" width="100" height="40" as="geometry"/></mxCell><mxCell id="OKjxkkXSC3GkU-OfnmQm-48" style="edgeStyle=orthogonalEdgeStyle;rounded=0;orthogonalLoop=1;jettySize=auto;html=1;exitX=1;exitY=0.5;exitDx=0;exitDy=0;endArrow=none;endFill=0;entryX=0.112;entryY=0.98;entryDx=0;entryDy=0;entryPerimeter=0;" parent="1" source="OKjxkkXSC3GkU-OfnmQm-3" target="n9BHDYFtltxvlKAYg7nu-54" edge="1"><mxGeometry relative="1" as="geometry"><mxPoint x="1060" y="520" as="targetPoint"/></mxGeometry></mxCell><mxCell id="OKjxkkXSC3GkU-OfnmQm-3" value="nr fiscal" style="ellipse;whiteSpace=wrap;html=1;align=center;" parent="1" vertex="1"><mxGeometry x="970" y="600" width="100" height="40" as="geometry"/></mxCell><mxCell id="OKjxkkXSC3GkU-OfnmQm-51" style="edgeStyle=orthogonalEdgeStyle;rounded=0;orthogonalLoop=1;jettySize=auto;html=1;exitX=0;exitY=0.5;exitDx=0;exitDy=0;entryX=0.91;entryY=0.996;entryDx=0;entryDy=0;entryPerimeter=0;endArrow=none;endFill=0;" parent="1" source="OKjxkkXSC3GkU-OfnmQm-4" target="n9BHDYFtltxvlKAYg7nu-54" edge="1"><mxGeometry relative="1" as="geometry"/></mxCell><mxCell id="OKjxkkXSC3GkU-OfnmQm-4" value="email" style="ellipse;whiteSpace=wrap;html=1;align=center;" parent="1" vertex="1"><mxGeometry x="1210" y="485" width="100" height="40" as="geometry"/></mxCell><mxCell id="sahUQvl5ozFRLX7pKj-Z-43" style="edgeStyle=orthogonalEdgeStyle;rounded=0;orthogonalLoop=1;jettySize=auto;html=1;exitX=1;exitY=0.25;exitDx=0;exitDy=0;endArrow=none;endFill=0;" parent="1" source="OKjxkkXSC3GkU-OfnmQm-6" edge="1"><mxGeometry relative="1" as="geometry"><mxPoint x="2140" y="1230" as="targetPoint"/></mxGeometry></mxCell><mxCell id="OKjxkkXSC3GkU-OfnmQm-6" value="Morada" style="whiteSpace=wrap;html=1;align=center;" parent="1" vertex="1"><mxGeometry x="1600" y="520" width="100" height="40" as="geometry"/></mxCell><mxCell id="OKjxkkXSC3GkU-OfnmQm-18" style="edgeStyle=orthogonalEdgeStyle;rounded=0;orthogonalLoop=1;jettySize=auto;html=1;exitX=0;exitY=1;exitDx=0;exitDy=0;entryX=0.75;entryY=0;entryDx=0;entryDy=0;endArrow=none;endFill=0;" parent="1" source="OKjxkkXSC3GkU-OfnmQm-7" target="OKjxkkXSC3GkU-OfnmQm-6" edge="1"><mxGeometry relative="1" as="geometry"/></mxCell><mxCell id="OKjxkkXSC3GkU-OfnmQm-7" value="codigo&lt;br&gt;postal" style="ellipse;whiteSpace=wrap;html=1;align=center;" parent="1" vertex="1"><mxGeometry x="1680" y="425" width="100" height="40" as="geometry"/></mxCell><mxCell id="OKjxkkXSC3GkU-OfnmQm-17" style="edgeStyle=orthogonalEdgeStyle;rounded=0;orthogonalLoop=1;jettySize=auto;html=1;exitX=0;exitY=1;exitDx=0;exitDy=0;entryX=1;entryY=0;entryDx=0;entryDy=0;endArrow=none;endFill=0;" parent="1" source="OKjxkkXSC3GkU-OfnmQm-8" target="OKjxkkXSC3GkU-OfnmQm-6" edge="1"><mxGeometry relative="1" as="geometry"/></mxCell><mxCell id="OKjxkkXSC3GkU-OfnmQm-8" value="rua" style="ellipse;whiteSpace=wrap;html=1;align=center;" parent="1" vertex="1"><mxGeometry x="1740" y="470" width="100" height="40" as="geometry"/></mxCell><mxCell id="OKjxkkXSC3GkU-OfnmQm-13" style="edgeStyle=orthogonalEdgeStyle;rounded=0;orthogonalLoop=1;jettySize=auto;html=1;exitX=1;exitY=0;exitDx=0;exitDy=0;entryX=0;entryY=1;entryDx=0;entryDy=0;endArrow=none;endFill=0;" parent="1" source="OKjxkkXSC3GkU-OfnmQm-9" target="OKjxkkXSC3GkU-OfnmQm-6" edge="1"><mxGeometry relative="1" as="geometry"/></mxCell><mxCell id="OKjxkkXSC3GkU-OfnmQm-9" value="localidade" style="ellipse;whiteSpace=wrap;html=1;align=center;" parent="1" vertex="1"><mxGeometry x="1490" y="585" width="100" height="40" as="geometry"/></mxCell><mxCell id="OKjxkkXSC3GkU-OfnmQm-16" style="edgeStyle=orthogonalEdgeStyle;rounded=0;orthogonalLoop=1;jettySize=auto;html=1;exitX=0;exitY=0.5;exitDx=0;exitDy=0;entryX=1;entryY=0.75;entryDx=0;entryDy=0;endArrow=none;endFill=0;" parent="1" source="OKjxkkXSC3GkU-OfnmQm-10" target="OKjxkkXSC3GkU-OfnmQm-6" edge="1"><mxGeometry relative="1" as="geometry"/></mxCell><mxCell id="OKjxkkXSC3GkU-OfnmQm-10" value="pais" style="ellipse;whiteSpace=wrap;html=1;align=center;" parent="1" vertex="1"><mxGeometry x="1754" y="560" width="100" height="40" as="geometry"/></mxCell><mxCell id="OKjxkkXSC3GkU-OfnmQm-14" style="edgeStyle=orthogonalEdgeStyle;rounded=0;orthogonalLoop=1;jettySize=auto;html=1;exitX=0.5;exitY=0;exitDx=0;exitDy=0;entryX=0.25;entryY=1;entryDx=0;entryDy=0;endArrow=none;endFill=0;" parent="1" source="OKjxkkXSC3GkU-OfnmQm-11" target="OKjxkkXSC3GkU-OfnmQm-6" edge="1"><mxGeometry relative="1" as="geometry"/></mxCell><mxCell id="OKjxkkXSC3GkU-OfnmQm-11" value="nr porta" style="ellipse;whiteSpace=wrap;html=1;align=center;" parent="1" vertex="1"><mxGeometry x="1550" y="645" width="100" height="40" as="geometry"/></mxCell><mxCell id="OKjxkkXSC3GkU-OfnmQm-15" style="edgeStyle=orthogonalEdgeStyle;rounded=0;orthogonalLoop=1;jettySize=auto;html=1;exitX=0;exitY=0;exitDx=0;exitDy=0;entryX=0.5;entryY=1;entryDx=0;entryDy=0;endArrow=none;endFill=0;" parent="1" source="OKjxkkXSC3GkU-OfnmQm-12" target="OKjxkkXSC3GkU-OfnmQm-6" edge="1"><mxGeometry relative="1" as="geometry"/></mxCell><mxCell id="OKjxkkXSC3GkU-OfnmQm-12" value="andar" style="ellipse;whiteSpace=wrap;html=1;align=center;" parent="1" vertex="1"><mxGeometry x="1630" y="585" width="100" height="40" as="geometry"/></mxCell><mxCell id="OKjxkkXSC3GkU-OfnmQm-25" style="edgeStyle=orthogonalEdgeStyle;rounded=0;orthogonalLoop=1;jettySize=auto;html=1;exitX=1;exitY=0.5;exitDx=0;exitDy=0;entryX=0.25;entryY=0;entryDx=0;entryDy=0;endArrow=none;endFill=0;" parent="1" source="OKjxkkXSC3GkU-OfnmQm-20" target="OKjxkkXSC3GkU-OfnmQm-6" edge="1"><mxGeometry relative="1" as="geometry"/></mxCell><mxCell id="OKjxkkXSC3GkU-OfnmQm-20" value="morada&lt;br&gt;correspondencia" style="shape=rhombus;perimeter=rhombusPerimeter;whiteSpace=wrap;html=1;align=center;" parent="1" vertex="1"><mxGeometry x="1410" y="430" width="130" height="80" as="geometry"/></mxCell><mxCell id="OKjxkkXSC3GkU-OfnmQm-24" style="edgeStyle=orthogonalEdgeStyle;rounded=0;orthogonalLoop=1;jettySize=auto;html=1;exitX=1;exitY=0.5;exitDx=0;exitDy=0;entryX=0;entryY=0.5;entryDx=0;entryDy=0;endArrow=none;endFill=0;" parent="1" source="OKjxkkXSC3GkU-OfnmQm-21" target="OKjxkkXSC3GkU-OfnmQm-6" edge="1"><mxGeometry relative="1" as="geometry"/></mxCell><mxCell id="OKjxkkXSC3GkU-OfnmQm-21" value="morada&lt;br&gt;entrega" style="shape=rhombus;perimeter=rhombusPerimeter;whiteSpace=wrap;html=1;align=center;" parent="1" vertex="1"><mxGeometry x="1370" y="510" width="120" height="60" as="geometry"/></mxCell><mxCell id="OKjxkkXSC3GkU-OfnmQm-50" style="edgeStyle=orthogonalEdgeStyle;rounded=0;orthogonalLoop=1;jettySize=auto;html=1;exitX=0;exitY=0;exitDx=0;exitDy=0;entryX=0.837;entryY=1.013;entryDx=0;entryDy=0;entryPerimeter=0;endArrow=none;endFill=0;" parent="1" source="OKjxkkXSC3GkU-OfnmQm-26" target="n9BHDYFtltxvlKAYg7nu-54" edge="1"><mxGeometry relative="1" as="geometry"/></mxCell><mxCell id="OKjxkkXSC3GkU-OfnmQm-26" value="plafond" style="ellipse;whiteSpace=wrap;html=1;align=center;" parent="1" vertex="1"><mxGeometry x="1180" y="540" width="100" height="40" as="geometry"/></mxCell><mxCell id="OKjxkkXSC3GkU-OfnmQm-27" value="1" style="text;html=1;align=center;verticalAlign=middle;resizable=0;points=[];autosize=1;strokeColor=none;fillColor=none;" parent="1" vertex="1"><mxGeometry x="1600" y="490" width="30" height="30" as="geometry"/></mxCell><mxCell id="OKjxkkXSC3GkU-OfnmQm-28" value="1" style="text;html=1;align=center;verticalAlign=middle;resizable=0;points=[];autosize=1;strokeColor=none;fillColor=none;" parent="1" vertex="1"><mxGeometry x="1570" y="515" width="30" height="30" as="geometry"/></mxCell><mxCell id="OKjxkkXSC3GkU-OfnmQm-29" value="1" style="text;html=1;align=center;verticalAlign=middle;resizable=0;points=[];autosize=1;strokeColor=none;fillColor=none;" parent="1" vertex="1"><mxGeometry x="1180" y="470" width="30" height="30" as="geometry"/></mxCell><mxCell id="OKjxkkXSC3GkU-OfnmQm-31" value="1" style="text;html=1;align=center;verticalAlign=middle;resizable=0;points=[];autosize=1;strokeColor=none;fillColor=none;" parent="1" vertex="1"><mxGeometry x="1230" y="445" width="30" height="30" as="geometry"/></mxCell><mxCell id="OKjxkkXSC3GkU-OfnmQm-41" style="edgeStyle=orthogonalEdgeStyle;rounded=0;orthogonalLoop=1;jettySize=auto;html=1;exitX=1;exitY=0.25;exitDx=0;exitDy=0;entryX=0;entryY=0.5;entryDx=0;entryDy=0;endArrow=none;endFill=0;" parent="1" source="sahUQvl5ozFRLX7pKj-Z-7" target="OKjxkkXSC3GkU-OfnmQm-34" edge="1"><mxGeometry relative="1" as="geometry"><mxPoint x="1435" y="695" as="sourcePoint"/></mxGeometry></mxCell><mxCell id="OKjxkkXSC3GkU-OfnmQm-34" value="data ocorrencia" style="ellipse;whiteSpace=wrap;html=1;align=center;" parent="1" vertex="1"><mxGeometry x="1665" y="765" width="100" height="40" as="geometry"/></mxCell><mxCell id="sahUQvl5ozFRLX7pKj-Z-1" style="edgeStyle=orthogonalEdgeStyle;rounded=0;orthogonalLoop=1;jettySize=auto;html=1;exitX=0.5;exitY=0;exitDx=0;exitDy=0;entryX=0.75;entryY=1;entryDx=0;entryDy=0;endArrow=none;endFill=0;" parent="1" source="sahUQvl5ozFRLX7pKj-Z-3" target="n9BHDYFtltxvlKAYg7nu-54" edge="1"><mxGeometry relative="1" as="geometry"><mxPoint x="1730" y="905" as="targetPoint"/></mxGeometry></mxCell><mxCell id="sahUQvl5ozFRLX7pKj-Z-2" style="edgeStyle=orthogonalEdgeStyle;rounded=0;orthogonalLoop=1;jettySize=auto;html=1;exitX=0.5;exitY=1;exitDx=0;exitDy=0;endArrow=none;endFill=0;" parent="1" source="sahUQvl5ozFRLX7pKj-Z-3" target="sahUQvl5ozFRLX7pKj-Z-7" edge="1"><mxGeometry relative="1" as="geometry"/></mxCell><mxCell id="sahUQvl5ozFRLX7pKj-Z-3" value="Tem" style="shape=rhombus;perimeter=rhombusPerimeter;whiteSpace=wrap;html=1;align=center;" parent="1" vertex="1"><mxGeometry x="1390" y="700" width="120" height="60" as="geometry"/></mxCell><mxCell id="sahUQvl5ozFRLX7pKj-Z-4" style="edgeStyle=orthogonalEdgeStyle;rounded=0;orthogonalLoop=1;jettySize=auto;html=1;exitX=0;exitY=0.5;exitDx=0;exitDy=0;entryX=1;entryY=0.5;entryDx=0;entryDy=0;endArrow=none;endFill=0;" parent="1" source="sahUQvl5ozFRLX7pKj-Z-5" target="sahUQvl5ozFRLX7pKj-Z-21" edge="1"><mxGeometry relative="1" as="geometry"/></mxCell><mxCell id="sahUQvl5ozFRLX7pKj-Z-5" value="Nível" style="whiteSpace=wrap;html=1;align=center;fontFamily=Helvetica;fontSize=12;fontColor=default;strokeColor=default;fillColor=default;" parent="1" vertex="1"><mxGeometry x="1310" y="650" width="100" height="40" as="geometry"/></mxCell><mxCell id="sahUQvl5ozFRLX7pKj-Z-6" style="edgeStyle=orthogonalEdgeStyle;rounded=0;orthogonalLoop=1;jettySize=auto;html=1;exitX=0.5;exitY=1;exitDx=0;exitDy=0;entryX=0.5;entryY=0;entryDx=0;entryDy=0;endArrow=none;endFill=0;" parent="1" source="sahUQvl5ozFRLX7pKj-Z-7" target="sahUQvl5ozFRLX7pKj-Z-27" edge="1"><mxGeometry relative="1" as="geometry"/></mxCell><mxCell id="sahUQvl5ozFRLX7pKj-Z-76" style="edgeStyle=orthogonalEdgeStyle;rounded=0;orthogonalLoop=1;jettySize=auto;html=1;exitX=1;exitY=0.75;exitDx=0;exitDy=0;endArrow=none;endFill=0;" parent="1" source="sahUQvl5ozFRLX7pKj-Z-7" edge="1"><mxGeometry relative="1" as="geometry"><mxPoint x="1820" y="1270" as="targetPoint"/></mxGeometry></mxCell><mxCell id="sahUQvl5ozFRLX7pKj-Z-7" value="Incidente" style="whiteSpace=wrap;html=1;align=center;" parent="1" vertex="1"><mxGeometry x="1535" y="805" width="100" height="40" as="geometry"/></mxCell><mxCell id="sahUQvl5ozFRLX7pKj-Z-8" style="edgeStyle=orthogonalEdgeStyle;rounded=0;orthogonalLoop=1;jettySize=auto;html=1;exitX=0.6;exitY=1;exitDx=0;exitDy=0;entryX=0;entryY=0.5;entryDx=0;entryDy=0;endArrow=none;endFill=0;exitPerimeter=0;" parent="1" source="n9BHDYFtltxvlKAYg7nu-54" target="sahUQvl5ozFRLX7pKj-Z-21" edge="1"><mxGeometry relative="1" as="geometry"><mxPoint x="1680" y="925" as="sourcePoint"/></mxGeometry></mxCell><mxCell id="sahUQvl5ozFRLX7pKj-Z-9" style="edgeStyle=orthogonalEdgeStyle;rounded=0;orthogonalLoop=1;jettySize=auto;html=1;entryX=0.5;entryY=0;entryDx=0;entryDy=0;endArrow=none;endFill=0;exitX=0.5;exitY=1;exitDx=0;exitDy=0;" parent="1" source="n9BHDYFtltxvlKAYg7nu-54" target="sahUQvl5ozFRLX7pKj-Z-23" edge="1"><mxGeometry relative="1" as="geometry"><mxPoint x="1240" y="720" as="sourcePoint"/></mxGeometry></mxCell><mxCell id="sahUQvl5ozFRLX7pKj-Z-11" style="edgeStyle=orthogonalEdgeStyle;rounded=0;orthogonalLoop=1;jettySize=auto;html=1;exitX=1;exitY=0.5;exitDx=0;exitDy=0;entryX=0;entryY=0.5;entryDx=0;entryDy=0;endArrow=none;endFill=0;" parent="1" source="sahUQvl5ozFRLX7pKj-Z-12" target="sahUQvl5ozFRLX7pKj-Z-30" edge="1"><mxGeometry relative="1" as="geometry"/></mxCell><mxCell id="sahUQvl5ozFRLX7pKj-Z-35" style="edgeStyle=orthogonalEdgeStyle;rounded=0;orthogonalLoop=1;jettySize=auto;html=1;exitX=0;exitY=0.5;exitDx=0;exitDy=0;entryX=1;entryY=0.5;entryDx=0;entryDy=0;endArrow=none;endFill=0;" parent="1" source="sahUQvl5ozFRLX7pKj-Z-12" target="n9BHDYFtltxvlKAYg7nu-73" edge="1"><mxGeometry relative="1" as="geometry"/></mxCell><mxCell id="sahUQvl5ozFRLX7pKj-Z-12" value="Pedido" style="whiteSpace=wrap;html=1;align=center;" parent="1" vertex="1"><mxGeometry x="980" y="815" width="100" height="40" as="geometry"/></mxCell><mxCell id="sahUQvl5ozFRLX7pKj-Z-13" style="edgeStyle=orthogonalEdgeStyle;rounded=0;orthogonalLoop=1;jettySize=auto;html=1;exitX=1;exitY=1;exitDx=0;exitDy=0;endArrow=none;endFill=0;" parent="1" source="sahUQvl5ozFRLX7pKj-Z-17" target="sahUQvl5ozFRLX7pKj-Z-19" edge="1"><mxGeometry relative="1" as="geometry"/></mxCell><mxCell id="sahUQvl5ozFRLX7pKj-Z-14" style="edgeStyle=orthogonalEdgeStyle;rounded=0;orthogonalLoop=1;jettySize=auto;html=1;exitX=1;exitY=0.5;exitDx=0;exitDy=0;entryX=0;entryY=0.5;entryDx=0;entryDy=0;endArrow=none;endFill=0;" parent="1" source="sahUQvl5ozFRLX7pKj-Z-17" target="sahUQvl5ozFRLX7pKj-Z-27" edge="1"><mxGeometry relative="1" as="geometry"/></mxCell><mxCell id="sahUQvl5ozFRLX7pKj-Z-15" style="edgeStyle=orthogonalEdgeStyle;rounded=0;orthogonalLoop=1;jettySize=auto;html=1;exitX=0.75;exitY=1;exitDx=0;exitDy=0;entryX=0.5;entryY=0;entryDx=0;entryDy=0;endArrow=none;endFill=0;" parent="1" source="sahUQvl5ozFRLX7pKj-Z-17" target="sahUQvl5ozFRLX7pKj-Z-28" edge="1"><mxGeometry relative="1" as="geometry"/></mxCell><mxCell id="sahUQvl5ozFRLX7pKj-Z-16" style="edgeStyle=orthogonalEdgeStyle;rounded=0;orthogonalLoop=1;jettySize=auto;html=1;exitX=0.25;exitY=1;exitDx=0;exitDy=0;endArrow=none;endFill=0;" parent="1" source="sahUQvl5ozFRLX7pKj-Z-17" target="sahUQvl5ozFRLX7pKj-Z-18" edge="1"><mxGeometry relative="1" as="geometry"/></mxCell><mxCell id="4" style="edgeStyle=orthogonalEdgeStyle;rounded=0;orthogonalLoop=1;jettySize=auto;html=1;exitX=0.5;exitY=1;exitDx=0;exitDy=0;entryX=1;entryY=0;entryDx=0;entryDy=0;endArrow=none;endFill=0;" edge="1" parent="1" source="sahUQvl5ozFRLX7pKj-Z-17" target="3"><mxGeometry relative="1" as="geometry"/></mxCell><mxCell id="sahUQvl5ozFRLX7pKj-Z-17" value="RegistoAnual" style="whiteSpace=wrap;html=1;align=center;" parent="1" vertex="1"><mxGeometry x="1400" y="875" width="100" height="40" as="geometry"/></mxCell><mxCell id="sahUQvl5ozFRLX7pKj-Z-18" value="número de encomendas" style="ellipse;whiteSpace=wrap;html=1;align=center;" parent="1" vertex="1"><mxGeometry x="1320" y="975" width="100" height="40" as="geometry"/></mxCell><mxCell id="sahUQvl5ozFRLX7pKj-Z-19" value="número de incidentes" style="ellipse;whiteSpace=wrap;align=center;" parent="1" vertex="1"><mxGeometry x="1520" y="972.5" width="100" height="40" as="geometry"/></mxCell><mxCell id="sahUQvl5ozFRLX7pKj-Z-20" style="edgeStyle=orthogonalEdgeStyle;rounded=0;orthogonalLoop=1;jettySize=auto;html=1;exitX=0.5;exitY=1;exitDx=0;exitDy=0;entryX=0.25;entryY=0;entryDx=0;entryDy=0;endArrow=none;endFill=0;" parent="1" source="sahUQvl5ozFRLX7pKj-Z-21" target="sahUQvl5ozFRLX7pKj-Z-17" edge="1"><mxGeometry relative="1" as="geometry"/></mxCell><mxCell id="sahUQvl5ozFRLX7pKj-Z-21" value="Tem" style="shape=rhombus;perimeter=rhombusPerimeter;whiteSpace=wrap;html=1;align=center;" parent="1" vertex="1"><mxGeometry x="1170" y="640" width="120" height="60" as="geometry"/></mxCell><mxCell id="sahUQvl5ozFRLX7pKj-Z-22" style="edgeStyle=orthogonalEdgeStyle;rounded=0;orthogonalLoop=1;jettySize=auto;html=1;exitX=0.5;exitY=1;exitDx=0;exitDy=0;endArrow=none;endFill=0;" parent="1" source="sahUQvl5ozFRLX7pKj-Z-23" target="sahUQvl5ozFRLX7pKj-Z-12" edge="1"><mxGeometry relative="1" as="geometry"/></mxCell><mxCell id="sahUQvl5ozFRLX7pKj-Z-23" value="produz" style="shape=rhombus;perimeter=rhombusPerimeter;whiteSpace=wrap;html=1;align=center;" parent="1" vertex="1"><mxGeometry x="1070" y="715" width="120" height="60" as="geometry"/></mxCell><mxCell id="sahUQvl5ozFRLX7pKj-Z-24" style="edgeStyle=orthogonalEdgeStyle;rounded=0;orthogonalLoop=1;jettySize=auto;html=1;exitX=0;exitY=0.5;exitDx=0;exitDy=0;entryX=0.827;entryY=1.059;entryDx=0;entryDy=0;endArrow=none;endFill=0;entryPerimeter=0;" parent="1" source="sahUQvl5ozFRLX7pKj-Z-26" target="sahUQvl5ozFRLX7pKj-Z-41" edge="1"><mxGeometry relative="1" as="geometry"/></mxCell><mxCell id="sahUQvl5ozFRLX7pKj-Z-25" style="edgeStyle=orthogonalEdgeStyle;rounded=0;orthogonalLoop=1;jettySize=auto;html=1;exitX=1;exitY=0.5;exitDx=0;exitDy=0;entryX=0;entryY=0.5;entryDx=0;entryDy=0;endArrow=none;endFill=0;" parent="1" source="sahUQvl5ozFRLX7pKj-Z-26" target="sahUQvl5ozFRLX7pKj-Z-17" edge="1"><mxGeometry relative="1" as="geometry"/></mxCell><mxCell id="sahUQvl5ozFRLX7pKj-Z-26" value="Tem" style="shape=rhombus;perimeter=rhombusPerimeter;whiteSpace=wrap;html=1;align=center;" parent="1" vertex="1"><mxGeometry x="1200" y="900" width="120" height="60" as="geometry"/></mxCell><mxCell id="sahUQvl5ozFRLX7pKj-Z-27" value="Tem" style="shape=rhombus;perimeter=rhombusPerimeter;whiteSpace=wrap;html=1;align=center;" parent="1" vertex="1"><mxGeometry x="1520" y="865" width="120" height="60" as="geometry"/></mxCell><mxCell id="sahUQvl5ozFRLX7pKj-Z-28" value="dataInício" style="ellipse;whiteSpace=wrap;html=1;align=center;" parent="1" vertex="1"><mxGeometry x="1457" y="1035" width="100" height="40" as="geometry"/></mxCell><mxCell id="sahUQvl5ozFRLX7pKj-Z-29" style="edgeStyle=orthogonalEdgeStyle;rounded=0;orthogonalLoop=1;jettySize=auto;html=1;exitX=1;exitY=0.5;exitDx=0;exitDy=0;entryX=0;entryY=0.5;entryDx=0;entryDy=0;endArrow=none;endFill=0;" parent="1" source="sahUQvl5ozFRLX7pKj-Z-30" target="sahUQvl5ozFRLX7pKj-Z-7" edge="1"><mxGeometry relative="1" as="geometry"/></mxCell><mxCell id="sahUQvl5ozFRLX7pKj-Z-30" value="Tem" style="shape=rhombus;perimeter=rhombusPerimeter;whiteSpace=wrap;html=1;align=center;" parent="1" vertex="1"><mxGeometry x="1130" y="805" width="120" height="60" as="geometry"/></mxCell><mxCell id="sahUQvl5ozFRLX7pKj-Z-38" style="edgeStyle=orthogonalEdgeStyle;rounded=0;orthogonalLoop=1;jettySize=auto;html=1;exitX=1;exitY=1;exitDx=0;exitDy=0;entryX=0;entryY=0;entryDx=0;entryDy=0;endArrow=none;endFill=0;" parent="1" source="sahUQvl5ozFRLX7pKj-Z-37" target="sahUQvl5ozFRLX7pKj-Z-12" edge="1"><mxGeometry relative="1" as="geometry"/></mxCell><mxCell id="sahUQvl5ozFRLX7pKj-Z-37" value="valor total" style="ellipse;whiteSpace=wrap;html=1;align=center;" parent="1" vertex="1"><mxGeometry x="880" y="690" width="100" height="40" as="geometry"/></mxCell><mxCell id="sahUQvl5ozFRLX7pKj-Z-54" style="edgeStyle=orthogonalEdgeStyle;rounded=0;orthogonalLoop=1;jettySize=auto;html=1;exitX=0;exitY=0.25;exitDx=0;exitDy=0;entryX=1;entryY=0.5;entryDx=0;entryDy=0;endArrow=none;endFill=0;" parent="1" source="sahUQvl5ozFRLX7pKj-Z-41" target="sahUQvl5ozFRLX7pKj-Z-53" edge="1"><mxGeometry relative="1" as="geometry"><Array as="points"><mxPoint x="950" y="825"/><mxPoint x="950" y="750"/></Array></mxGeometry></mxCell><mxCell id="sahUQvl5ozFRLX7pKj-Z-41" value="Pedido" style="whiteSpace=wrap;html=1;align=center;" parent="1" vertex="1"><mxGeometry x="980" y="815" width="100" height="40" as="geometry"/></mxCell><mxCell id="sahUQvl5ozFRLX7pKj-Z-45" value="" style="endArrow=none;html=1;rounded=0;" parent="1" edge="1"><mxGeometry width="50" height="50" relative="1" as="geometry"><mxPoint x="1180" y="1230" as="sourcePoint"/><mxPoint x="2140" y="1230" as="targetPoint"/></mxGeometry></mxCell><mxCell id="sahUQvl5ozFRLX7pKj-Z-47" value="" style="endArrow=none;html=1;rounded=0;" parent="1" edge="1"><mxGeometry width="50" height="50" relative="1" as="geometry"><mxPoint x="1180" y="1120" as="sourcePoint"/><mxPoint x="1180" y="1230" as="targetPoint"/></mxGeometry></mxCell><mxCell id="sahUQvl5ozFRLX7pKj-Z-49" style="edgeStyle=orthogonalEdgeStyle;rounded=0;orthogonalLoop=1;jettySize=auto;html=1;exitX=0;exitY=0.5;exitDx=0;exitDy=0;entryX=1;entryY=0.5;entryDx=0;entryDy=0;endArrow=none;endFill=0;" parent="1" source="sahUQvl5ozFRLX7pKj-Z-48" target="sahUQvl5ozFRLX7pKj-Z-61" edge="1"><mxGeometry relative="1" as="geometry"/></mxCell><mxCell id="sahUQvl5ozFRLX7pKj-Z-48" value="Tem" style="shape=rhombus;perimeter=rhombusPerimeter;whiteSpace=wrap;html=1;align=center;" parent="1" vertex="1"><mxGeometry x="1120" y="1060" width="120" height="60" as="geometry"/></mxCell><mxCell id="sahUQvl5ozFRLX7pKj-Z-50" value="1" style="text;html=1;align=center;verticalAlign=middle;resizable=0;points=[];autosize=1;strokeColor=none;fillColor=none;" parent="1" vertex="1"><mxGeometry x="1030" y="855" width="30" height="30" as="geometry"/></mxCell><mxCell id="sahUQvl5ozFRLX7pKj-Z-52" value="1" style="text;html=1;align=center;verticalAlign=middle;resizable=0;points=[];autosize=1;strokeColor=none;fillColor=none;" parent="1" vertex="1"><mxGeometry x="1700" y="510" width="30" height="30" as="geometry"/></mxCell><mxCell id="sahUQvl5ozFRLX7pKj-Z-53" value="data vencimento" style="ellipse;whiteSpace=wrap;html=1;align=center;" parent="1" vertex="1"><mxGeometry x="790" y="730" width="100" height="40" as="geometry"/></mxCell><mxCell id="sahUQvl5ozFRLX7pKj-Z-57" style="edgeStyle=orthogonalEdgeStyle;rounded=0;orthogonalLoop=1;jettySize=auto;html=1;exitX=0;exitY=0.5;exitDx=0;exitDy=0;entryX=1;entryY=0.5;entryDx=0;entryDy=0;endArrow=none;endFill=0;" parent="1" source="sahUQvl5ozFRLX7pKj-Z-55" target="sahUQvl5ozFRLX7pKj-Z-56" edge="1"><mxGeometry relative="1" as="geometry"/></mxCell><mxCell id="sahUQvl5ozFRLX7pKj-Z-78" style="edgeStyle=orthogonalEdgeStyle;rounded=0;orthogonalLoop=1;jettySize=auto;html=1;exitX=0.25;exitY=1;exitDx=0;exitDy=0;entryX=0;entryY=0.5;entryDx=0;entryDy=0;endArrow=none;endFill=0;" parent="1" source="sahUQvl5ozFRLX7pKj-Z-55" target="sahUQvl5ozFRLX7pKj-Z-77" edge="1"><mxGeometry relative="1" as="geometry"/></mxCell><mxCell id="sahUQvl5ozFRLX7pKj-Z-55" value="Pagamento" style="whiteSpace=wrap;html=1;align=center;" parent="1" vertex="1"><mxGeometry x="771.5" y="935" width="100" height="40" as="geometry"/></mxCell><mxCell id="sahUQvl5ozFRLX7pKj-Z-56" value="data pagamento" style="ellipse;whiteSpace=wrap;html=1;align=center;" parent="1" vertex="1"><mxGeometry x="638.5" y="935" width="100" height="40" as="geometry"/></mxCell><mxCell id="sahUQvl5ozFRLX7pKj-Z-60" style="edgeStyle=orthogonalEdgeStyle;rounded=0;orthogonalLoop=1;jettySize=auto;html=1;exitX=0.5;exitY=1;exitDx=0;exitDy=0;entryX=0.5;entryY=0;entryDx=0;entryDy=0;endArrow=none;endFill=0;" parent="1" source="sahUQvl5ozFRLX7pKj-Z-61" target="sahUQvl5ozFRLX7pKj-Z-62" edge="1"><mxGeometry relative="1" as="geometry"/></mxCell><mxCell id="sahUQvl5ozFRLX7pKj-Z-61" value="Entrega" style="whiteSpace=wrap;html=1;align=center;" parent="1" vertex="1"><mxGeometry x="940" y="1070" width="100" height="40" as="geometry"/></mxCell><mxCell id="sahUQvl5ozFRLX7pKj-Z-62" value="data entrega" style="ellipse;whiteSpace=wrap;html=1;align=center;" parent="1" vertex="1"><mxGeometry x="940" y="1154" width="100" height="40" as="geometry"/></mxCell><mxCell id="sahUQvl5ozFRLX7pKj-Z-64" style="edgeStyle=orthogonalEdgeStyle;rounded=0;orthogonalLoop=1;jettySize=auto;html=1;exitX=1;exitY=0.5;exitDx=0;exitDy=0;entryX=0;entryY=0;entryDx=0;entryDy=0;endArrow=none;endFill=0;" parent="1" source="sahUQvl5ozFRLX7pKj-Z-63" target="n9BHDYFtltxvlKAYg7nu-71" edge="1"><mxGeometry relative="1" as="geometry"/></mxCell><mxCell id="sahUQvl5ozFRLX7pKj-Z-65" style="edgeStyle=orthogonalEdgeStyle;rounded=0;orthogonalLoop=1;jettySize=auto;html=1;exitX=0;exitY=0.5;exitDx=0;exitDy=0;entryX=1;entryY=0.5;entryDx=0;entryDy=0;endArrow=none;endFill=0;" parent="1" source="sahUQvl5ozFRLX7pKj-Z-63" target="sahUQvl5ozFRLX7pKj-Z-55" edge="1"><mxGeometry relative="1" as="geometry"/></mxCell><mxCell id="sahUQvl5ozFRLX7pKj-Z-66" style="edgeStyle=orthogonalEdgeStyle;rounded=0;orthogonalLoop=1;jettySize=auto;html=1;exitX=0.5;exitY=1;exitDx=0;exitDy=0;entryX=0.5;entryY=0;entryDx=0;entryDy=0;endArrow=none;endFill=0;" parent="1" source="sahUQvl5ozFRLX7pKj-Z-63" target="sahUQvl5ozFRLX7pKj-Z-61" edge="1"><mxGeometry relative="1" as="geometry"/></mxCell><mxCell id="sahUQvl5ozFRLX7pKj-Z-67" style="edgeStyle=orthogonalEdgeStyle;rounded=0;orthogonalLoop=1;jettySize=auto;html=1;exitX=0.5;exitY=0;exitDx=0;exitDy=0;entryX=0.25;entryY=1;entryDx=0;entryDy=0;endArrow=none;endFill=0;" parent="1" source="sahUQvl5ozFRLX7pKj-Z-63" target="sahUQvl5ozFRLX7pKj-Z-41" edge="1"><mxGeometry relative="1" as="geometry"/></mxCell><mxCell id="sahUQvl5ozFRLX7pKj-Z-63" value="tem" style="shape=rhombus;perimeter=rhombusPerimeter;whiteSpace=wrap;html=1;align=center;" parent="1" vertex="1"><mxGeometry x="930" y="925" width="120" height="60" as="geometry"/></mxCell><mxCell id="sahUQvl5ozFRLX7pKj-Z-68" value="1" style="text;html=1;align=center;verticalAlign=middle;resizable=0;points=[];autosize=1;strokeColor=none;fillColor=none;" parent="1" vertex="1"><mxGeometry x="870" y="925" width="30" height="30" as="geometry"/></mxCell><mxCell id="sahUQvl5ozFRLX7pKj-Z-69" value="1" style="text;html=1;align=center;verticalAlign=middle;resizable=0;points=[];autosize=1;strokeColor=none;fillColor=none;" parent="1" vertex="1"><mxGeometry x="995" y="1045" width="30" height="30" as="geometry"/></mxCell><mxCell id="sahUQvl5ozFRLX7pKj-Z-71" value="1" style="text;html=1;align=center;verticalAlign=middle;resizable=0;points=[];autosize=1;strokeColor=none;fillColor=none;" parent="1" vertex="1"><mxGeometry x="980" y="855" width="30" height="30" as="geometry"/></mxCell><mxCell id="sahUQvl5ozFRLX7pKj-Z-79" style="edgeStyle=orthogonalEdgeStyle;rounded=0;orthogonalLoop=1;jettySize=auto;html=1;exitX=1;exitY=0.5;exitDx=0;exitDy=0;endArrow=none;endFill=0;" parent="1" source="sahUQvl5ozFRLX7pKj-Z-77" edge="1"><mxGeometry relative="1" as="geometry"><mxPoint x="1820" y="1270" as="targetPoint"/></mxGeometry></mxCell><mxCell id="sahUQvl5ozFRLX7pKj-Z-77" value="tem" style="shape=rhombus;perimeter=rhombusPerimeter;whiteSpace=wrap;html=1;align=center;" parent="1" vertex="1"><mxGeometry x="1390" y="1260" width="120" height="60" as="geometry"/></mxCell><mxCell id="sahUQvl5ozFRLX7pKj-Z-80" value="1" style="text;html=1;align=center;verticalAlign=middle;resizable=0;points=[];autosize=1;strokeColor=none;fillColor=none;" parent="1" vertex="1"><mxGeometry x="1630" y="835" width="30" height="30" as="geometry"/></mxCell><mxCell id="sahUQvl5ozFRLX7pKj-Z-81" value="1" style="text;html=1;align=center;verticalAlign=middle;resizable=0;points=[];autosize=1;strokeColor=none;fillColor=none;" parent="1" vertex="1"><mxGeometry x="797" y="970" width="30" height="30" as="geometry"/></mxCell><mxCell id="2" value="1" style="text;html=1;align=center;verticalAlign=middle;resizable=0;points=[];autosize=1;strokeColor=none;fillColor=none;" vertex="1" parent="1"><mxGeometry x="1045" y="1095" width="30" height="30" as="geometry"/></mxCell><mxCell id="3" value="valorTotal&lt;br&gt;Encomendas" style="ellipse;whiteSpace=wrap;html=1;align=center;" vertex="1" parent="1"><mxGeometry x="1350" y="1035" width="100" height="40" as="geometry"/></mxCell><mxCell id="19" style="edgeStyle=orthogonalEdgeStyle;rounded=0;orthogonalLoop=1;jettySize=auto;html=1;entryX=0.5;entryY=1;entryDx=0;entryDy=0;endArrow=none;endFill=0;exitX=0;exitY=0;exitDx=0;exitDy=0;" edge="1" parent="1" source="n9BHDYFtltxvlKAYg7nu-215" target="n9BHDYFtltxvlKAYg7nu-98"><mxGeometry relative="1" as="geometry"><mxPoint x="170" y="950" as="sourcePoint"/></mxGeometry></mxCell><mxCell id="13" value="1" style="text;html=1;align=center;verticalAlign=middle;resizable=0;points=[];autosize=1;strokeColor=none;fillColor=none;" vertex="1" parent="1"><mxGeometry x="-10" y="915" width="30" height="30" as="geometry"/></mxCell><mxCell id="14" style="edgeStyle=orthogonalEdgeStyle;rounded=0;orthogonalLoop=1;jettySize=auto;html=1;exitX=1;exitY=0;exitDx=0;exitDy=0;endArrow=none;endFill=0;" edge="1" parent="1" source="16"><mxGeometry relative="1" as="geometry"><mxPoint x="-221" y="450" as="targetPoint"/></mxGeometry></mxCell><mxCell id="15" style="edgeStyle=orthogonalEdgeStyle;rounded=0;orthogonalLoop=1;jettySize=auto;html=1;exitX=0;exitY=0;exitDx=0;exitDy=0;entryX=0.5;entryY=1;entryDx=0;entryDy=0;endArrow=none;endFill=0;" edge="1" parent="1" source="16" target="17"><mxGeometry relative="1" as="geometry"/></mxCell><mxCell id="16" value="Quantidade" style="whiteSpace=wrap;html=1;align=center;fontFamily=Helvetica;fontSize=12;fontColor=default;strokeColor=default;fillColor=default;" vertex="1" parent="1"><mxGeometry x="-341" y="490" width="100" height="40" as="geometry"/></mxCell><mxCell id="17" value="valor" style="ellipse;whiteSpace=wrap;html=1;align=center;" vertex="1" parent="1"><mxGeometry x="-391" y="410" width="100" height="40" as="geometry"/></mxCell><mxCell id="18" value="unidade" style="ellipse;whiteSpace=wrap;html=1;align=center;" vertex="1" parent="1"><mxGeometry x="-270" y="410" width="100" height="40" as="geometry"/></mxCell><mxCell id="24" style="edgeStyle=orthogonalEdgeStyle;rounded=0;orthogonalLoop=1;jettySize=auto;html=1;exitX=0.5;exitY=0;exitDx=0;exitDy=0;entryX=0.25;entryY=1;entryDx=0;entryDy=0;endArrow=none;endFill=0;" edge="1" parent="1" source="23" target="sahUQvl5ozFRLX7pKj-Z-5"><mxGeometry relative="1" as="geometry"/></mxCell><mxCell id="23" value="designaçao" style="ellipse;whiteSpace=wrap;html=1;align=center;" vertex="1" parent="1"><mxGeometry x="1280" y="720" width="100" height="40" as="geometry"/></mxCell></root></mxGraphModel></diagram></mxfile>